<?xml version="1.0" encoding="UTF-8" standalone="no"?>
<!-- Generator: Adobe Illustrator 21.0.2, SVG Export Plug-In . SVG Version: 6.00 Build 0)  -->

<svg
   xmlns:dc="http://purl.org/dc/elements/1.1/"
   xmlns:cc="http://creativecommons.org/ns#"
   xmlns:rdf="http://www.w3.org/1999/02/22-rdf-syntax-ns#"
   xmlns:svg="http://www.w3.org/2000/svg"
   xmlns="http://www.w3.org/2000/svg"
   xmlns:sodipodi="http://sodipodi.sourceforge.net/DTD/sodipodi-0.dtd"
   xmlns:inkscape="http://www.inkscape.org/namespaces/inkscape"
   version="1.1"
   id="Layer_1"
   x="0px"
   y="0px"
   viewBox="0 0 180 170"
   style="enable-background:new 0 0 180 170;"
   xml:space="preserve"
   sodipodi:docname="phpdetroit_paths.svg"
   inkscape:version="0.92.2 (5c3e80d, 2017-08-06)"><metadata
     id="metadata3809"><rdf:RDF><cc:Work
         rdf:about=""><dc:format>image/svg+xml</dc:format><dc:type
           rdf:resource="http://purl.org/dc/dcmitype/StillImage" /><dc:title></dc:title></cc:Work></rdf:RDF></metadata><defs
     id="defs3807" /><sodipodi:namedview
     pagecolor="#ffffff"
     bordercolor="#666666"
     borderopacity="1"
     objecttolerance="10"
     gridtolerance="10"
     guidetolerance="10"
     inkscape:pageopacity="0"
     inkscape:pageshadow="2"
     inkscape:window-width="1617"
     inkscape:window-height="1004"
     id="namedview3805"
     showgrid="false"
     inkscape:zoom="2.1213203"
     inkscape:cx="25.403704"
     inkscape:cy="4.0394019"
     inkscape:window-x="4450"
     inkscape:window-y="280"
     inkscape:window-maximized="0"
     inkscape:current-layer="g3800" /><style
     type="text/css"
     id="style3774">
	.st0{fill:#FFFFFF;}
	.st1{fill:#93B0DC;}
	.st2{fill:#2A4066;}
	.st3{font-family:'HandelGothicBT-Regular';}
	.st4{font-size:29.4766px;}
</style><g
     id="g3802"><circle
       class="st0"
       cx="90"
       cy="85"
       r="38.2"
       id="circle3776" /><g
       id="g3780"><path
         class="st1"
         d="M90,20.5c-2.6,0-5.2,0.2-7.7,0.5L75.8,0.9L52.1,8.6l6.5,20.1c-4.5,2.5-8.7,5.6-12.4,9L29.1,25.3L14.4,45.5    l17.1,12.4c-2.1,4.6-3.7,9.5-4.8,14.6H5.6v24.9h21.1c1,5.1,2.6,10,4.8,14.6l-17.1,12.4l14.7,20.2l17.1-12.4    c3.8,3.5,7.9,6.5,12.4,9l-6.5,20.1l23.7,7.7l6.5-20.1c2.5,0.3,5.1,0.5,7.7,0.5s5.2-0.2,7.7-0.5l6.5,20.1l23.7-7.7l-6.5-20.1    c4.5-2.5,8.7-5.6,12.4-9l17.1,12.4l14.7-20.2l-17.1-12.4c2.1-4.6,3.7-9.5,4.8-14.6h21.1V72.5h-21.1c-1-5.1-2.6-10-4.8-14.6    l17.1-12.4l-14.7-20.2l-17.1,12.4c-3.8-3.5-7.9-6.5-12.4-9l6.5-20.1l-23.7-7.7L97.7,21C95.2,20.7,92.6,20.5,90,20.5z M120.9,85    c0,17.1-13.8,30.9-30.9,30.9S59.1,102.1,59.1,85S72.9,54.1,90,54.1S120.9,67.9,120.9,85z"
         id="path3778" /></g><rect
       y="63.5"
       class="st0"
       width="180"
       height="44.3"
       id="rect3782" /><path
       class="st2"
       d="M177.7,64.9v-5.4H176v-1.2h-1.8v0.8h-1.5v-5.6H170v-17h-0.5v-0.8h-1.3v5.8h-0.7v-4.4c0,0-7.6-0.2-7.6,0.9   c0,1,0,12.3,0,12.3h-1.2v13h-1.9V34.4c0,0-2.2,0.5-2.2,0s0-9.9,0-9.9l-1.3-1.3v2.2c0,0-6.3-0.8-6.3,1s0,10.4,0,10.4h-0.7v3h-0.5   v23.5c0,0-3.2,0.4-3.2,0s0-13.3,0-13.3h-1V38.6c0-0.9-8.7-0.9-8.7,0v18h-3.2v5l-1.2,1.2h-4.3v-3.3h-1.4v-1.2h-2.1v-1.6h-3.7v1H116   v-2.9l-3.3-1.7v-0.8h-4.3v0.9l-1.7,0.7v9h-0.7v-1.5h-1.6v-0.8h-3.6v-2.9h-1.1v-0.9h-2.5v1h-3.3v-1.1h-5.5v1h-4.3v-6.5h-3.1   c0,0,0.5-1.2,0-1.2c-0.5,0-3.6,0-3.6,0v-1.3h-1.3v-7.1l-1.5-6.1L74,36.6l-1.3-1.8l-1.2,1.7h-3.5l-0.7-1.3l-1.8,6.2v12.1h-1.5v-8.2   h-2.6v-2.9h-4.5v2.8h-1.2v-1.2h-2.2v-0.8H53v-1.3h-1l-0.6-1.2v-4h-0.8v4.1l-1,1.6h-0.7v1.5h-0.8v12.6h-1.4v-2.9h-1.8v-4.3h-1.4   v-5.2h-1.2v-2.2l-3-2.4v-0.8h-0.9v0.8h-2v-1.6h-0.5v-1.3h0.4v-1.2h-1.1v1.2h0.4v1.3h-0.4v1.5H34v0.4h-0.8v1.9h-0.7v3.1h-0.9v1h-0.9   v6.1h-1.3l-0.8,0.8h-1.4v6.7h-1.4v1.7h-1v-0.7h-1.3v-0.7h-1v-6.4h-1v-1.5H18v2.5h-3.2v-1H12v1h-0.7v-3.1H10v-3H5.5l-1.3,1.3v9.3   H2.3v4.4L177.7,64.9z"
       id="path3784" /><rect
       y="66.8"
       class="st2"
       width="180"
       height="38.1"
       id="rect3786" /><rect
       y="106.9"
       class="st2"
       width="180"
       height="5.4"
       id="rect3788" /><rect
       y="116"
       class="st2"
       width="180"
       height="2.7"
       id="rect3790" /><rect
       y="59.6"
       class="st2"
       width="180"
       height="5.4"
       id="rect3792" /><rect
       y="60.8"
       class="st2"
       width="180"
       height="4.2"
       id="rect3794" /><g
       id="g3800"><g
         aria-label="[detroit]"
         transform="matrix(0.9812 0 -0.2008 0.9796 56.6193 95.0788)"
         style="font-size:29.47660065px;font-family:HandelGothicBT-Regular;fill:#93b0dc"
         id="text3796"><path
           sodipodi:type="inkscape:offset"
           inkscape:radius="0"
           inkscape:original="M 2.2695312 -21.164062 L 2.2695312 3.7734375 L 9.4921875 3.7734375 L 9.4921875 0.47070312 L 5.8359375 0.47070312 L 5.8359375 -17.863281 L 9.4921875 -17.863281 L 9.4921875 -21.164062 L 2.2695312 -21.164062 z M 22.302734 -21.164062 L 22.302734 -15.533203 L 18.796875 -15.533203 C 15.996598 -15.533203 14.108596 -15.00351 12.634766 -13.146484 C 11.514655 -11.731607 10.955078 -10.022346 10.955078 -7.9589844 C 10.955078 -3.0069155 13.697088 -5.9211895e-16 18.53125 0 L 26.400391 0 L 26.400391 -21.164062 L 22.302734 -21.164062 z M 46.878906 -21.164062 L 46.878906 -15.533203 L 43.990234 -15.533203 L 43.990234 -12.439453 L 46.878906 -12.439453 L 46.878906 -4.8632812 C 46.878906 -1.6798083 48.589269 0 51.566406 0 L 55.308594 0 L 55.308594 -3.0957031 L 53.628906 -3.0957031 C 51.536067 -3.0957031 50.976562 -4.0083645 50.976562 -6.1601562 L 50.976562 -12.439453 L 55.308594 -12.439453 L 55.308594 -15.533203 L 50.976562 -15.533203 L 50.976562 -21.164062 L 46.878906 -21.164062 z M 89.564453 -21.164062 L 89.564453 -17.302734 L 93.869141 -17.302734 L 93.869141 -21.164062 L 89.564453 -21.164062 z M 98.75 -21.164062 L 98.75 -15.533203 L 95.861328 -15.533203 L 95.861328 -12.439453 L 98.75 -12.439453 L 98.75 -4.8632812 C 98.75 -1.6798083 100.46036 0 103.4375 0 L 107.18164 0 L 107.18164 -3.0957031 L 105.5 -3.0957031 C 103.40716 -3.0957031 102.84766 -4.0083645 102.84766 -6.1601562 L 102.84766 -12.439453 L 107.18164 -12.439453 L 107.18164 -15.533203 L 102.84766 -15.533203 L 102.84766 -21.164062 L 98.75 -21.164062 z M 108.56836 -21.164062 L 108.56836 -17.863281 L 112.25195 -17.863281 L 112.25195 0.47070312 L 108.56836 0.47070312 L 108.56836 3.7734375 L 115.79102 3.7734375 L 115.79102 -21.164062 L 108.56836 -21.164062 z M 78.824219 -15.798828 C 73.754244 -15.798828 70.570313 -12.586115 70.570312 -7.7519531 C 70.570312 -2.9472672 73.754244 0.265625 78.824219 0.265625 C 83.923671 0.265625 87.048828 -2.9472672 87.048828 -7.7519531 C 87.048828 -12.586115 83.864718 -15.798828 78.824219 -15.798828 z M 36.90625 -15.533203 C 31.747845 -15.533203 29.09375 -12.821928 29.09375 -7.7519531 C 29.09375 -2.6525012 31.747845 5.9211895e-16 36.90625 0 L 42.888672 0 L 42.888672 -3.2421875 L 37.435547 -3.2421875 C 34.782653 -3.2421875 33.721242 -3.5663952 33.632812 -6.1308594 L 42.888672 -6.1308594 L 42.888672 -9.3730469 L 33.632812 -9.3730469 C 33.721243 -11.849081 34.841427 -12.291016 37.464844 -12.291016 L 42.888672 -12.291016 L 42.888672 -15.533203 L 36.90625 -15.533203 z M 57.728516 -15.533203 L 57.728516 0 L 61.826172 0 L 61.826172 -12.556641 L 63.269531 -12.556641 C 64.595978 -12.556641 65.068359 -12.408837 65.068359 -11.023438 L 65.068359 -9.0195312 L 68.988281 -9.0195312 L 68.988281 -11.613281 C 68.988281 -14.501988 67.867426 -15.533203 64.625 -15.533203 L 57.728516 -15.533203 z M 89.564453 -15.533203 L 89.564453 0 L 93.869141 0 L 93.869141 -15.533203 L 89.564453 -15.533203 z M 78.794922 -12.439453 C 81.24148 -12.439453 82.744141 -10.758566 82.744141 -7.7519531 C 82.744141 -4.7453398 81.212003 -3.0664062 78.794922 -3.0664062 C 76.377841 -3.0664062 74.875 -4.7453398 74.875 -7.7519531 C 74.875 -10.758566 76.407317 -12.439453 78.794922 -12.439453 z M 19.828125 -12.173828 L 22.302734 -12.173828 L 22.302734 -3.3300781 L 19.503906 -3.3300781 C 16.467816 -3.3300781 15.257812 -4.4216364 15.257812 -7.6640625 C 15.257812 -11.024395 16.644652 -12.173828 19.828125 -12.173828 z "
           style="font-style:normal;font-variant:normal;font-weight:500;font-stretch:normal;font-family:'Handel Gothic';-inkscape-font-specification:'Handel Gothic Medium'"
           id="path3914"
           d="M 2.2695312,-21.164062 V 3.7734375 H 9.4921875 V 0.47070312 h -3.65625 V -17.863281 h 3.65625 v -3.300781 z m 20.0332028,0 v 5.630859 h -3.505859 c -2.800277,0 -4.688279,0.529693 -6.162109,2.386719 -1.120111,1.414877 -1.679688,3.124138 -1.679688,5.1874996 C 10.955078,-3.0069155 13.697088,0 18.53125,0 h 7.869141 v -21.164062 z m 24.576172,0 v 5.630859 h -2.888672 v 3.09375 h 2.888672 v 7.5761718 C 46.878906,-1.6798083 48.589269,0 51.566406,0 h 3.742188 v -3.0957031 h -1.679688 c -2.092839,0 -2.652344,-0.9126614 -2.652344,-3.0644531 v -6.2792968 h 4.332032 v -3.09375 h -4.332032 v -5.630859 z m 42.685547,0 v 3.861328 h 4.304688 v -3.861328 z m 9.185547,0 v 5.630859 h -2.888672 v 3.09375 H 98.75 v 7.5761718 C 98.75,-1.6798083 100.46036,0 103.4375,0 h 3.74414 V -3.0957031 H 105.5 c -2.09284,0 -2.65234,-0.9126614 -2.65234,-3.0644531 v -6.2792968 h 4.33398 v -3.09375 h -4.33398 v -5.630859 z m 9.81836,0 v 3.300781 h 3.68359 V 0.47070312 h -3.68359 V 3.7734375 h 7.22266 V -21.164062 Z m -29.744141,5.365234 c -5.069975,0 -8.253906,3.212713 -8.253907,8.0468749 0,4.8046859 3.183932,8.0175781 8.253907,8.0175781 5.099452,0 8.224609,-3.2128922 8.224609,-8.0175781 0,-4.8341619 -3.18411,-8.0468749 -8.224609,-8.0468749 z m -41.917969,0.265625 c -5.158405,0 -7.8125,2.711275 -7.8125,7.7812499 C 29.09375,-2.6525012 31.747845,0 36.90625,0 h 5.982422 v -3.2421875 h -5.453125 c -2.652894,0 -3.714305,-0.3242077 -3.802735,-2.8886719 h 9.25586 v -3.2421875 h -9.25586 c 0.08843,-2.4760341 1.208615,-2.9179691 3.832032,-2.9179691 h 5.423828 v -3.242187 z m 20.822266,0 V 0 h 4.097656 v -12.556641 h 1.443359 c 1.326447,0 1.798828,0.147804 1.798828,1.533203 v 2.0039068 h 3.919922 v -2.5937498 c 0,-2.888707 -1.120855,-3.919922 -4.363281,-3.919922 z m 31.835937,0 V 0 h 4.304688 v -15.533203 z m -10.769531,3.09375 c 2.446558,0 3.949219,1.680887 3.949219,4.6874999 0,3.0066133 -1.532138,4.6855469 -3.949219,4.6855469 -2.417081,0 -3.919922,-1.6789336 -3.919922,-4.6855469 0,-3.0066129 1.532317,-4.6874999 3.919922,-4.6874999 z m -58.966797,0.265625 h 2.474609 v 8.8437499 h -2.798828 c -3.03609,0 -4.246094,-1.0915583 -4.246094,-4.3339844 0,-3.3603325 1.38684,-4.5097655 4.570313,-4.5097655 z" /></g><g
         aria-label="php"
         transform="matrix(0.9812 0 -0.2008 0.9796 3.8824 94.6292)"
         style="font-size:29.47660065px;font-family:HandelGothicBT-Regular;fill:#ffffff"
         id="text3798"><path
           sodipodi:type="inkscape:offset"
           inkscape:radius="0"
           inkscape:original="M 19.789062 -21.164062 L 19.789062 0 L 23.855469 0 L 23.855469 -12.115234 L 27.128906 -12.115234 C 29.280698 -12.115234 29.869141 -11.436409 29.869141 -9.3730469 L 29.869141 0 L 33.996094 0 L 33.996094 -9.8457031 C 33.996094 -13.883998 32.021639 -15.533203 27.511719 -15.533203 L 23.855469 -15.533203 L 23.855469 -21.164062 L 19.789062 -21.164062 z M 1.7988281 -15.533203 L 1.7988281 5.6308594 L 5.8945312 5.6308594 L 5.8945312 0 L 9.4316406 0 C 12.231917 0 14.11992 -0.52969286 15.59375 -2.3867188 C 16.713861 -3.8015956 17.273438 -5.5128098 17.273438 -7.5761719 C 17.273438 -12.52824 14.501952 -15.533203 9.6972656 -15.533203 L 1.7988281 -15.533203 z M 37.550781 -15.533203 L 37.550781 5.6308594 L 41.646484 5.6308594 L 41.646484 0 L 45.183594 0 C 47.983871 0 49.871873 -0.52969286 51.345703 -2.3867188 C 52.465814 -3.8015956 53.025391 -5.5128098 53.025391 -7.5761719 C 53.025391 -12.52824 50.253905 -15.533203 45.449219 -15.533203 L 37.550781 -15.533203 z M 5.8945312 -12.173828 L 8.7246094 -12.173828 C 11.7607 -12.173828 12.96875 -11.113519 12.96875 -7.8710938 C 12.96875 -4.4812847 11.583863 -3.3300781 8.4003906 -3.3300781 L 5.8945312 -3.3300781 L 5.8945312 -12.173828 z M 41.646484 -12.173828 L 44.476562 -12.173828 C 47.512653 -12.173828 48.720703 -11.113519 48.720703 -7.8710938 C 48.720703 -4.4812847 47.335817 -3.3300781 44.152344 -3.3300781 L 41.646484 -3.3300781 L 41.646484 -12.173828 z "
           style="font-style:normal;font-variant:normal;font-weight:500;font-stretch:normal;font-family:'Handel Gothic';-inkscape-font-specification:'Handel Gothic Medium'"
           id="path3924"
           d="M 19.789062,-21.164062 V 0 h 4.066407 v -12.115234 h 3.273437 c 2.151792,0 2.740235,0.678825 2.740235,2.7421871 V 0 h 4.126953 v -9.8457031 c 0,-4.0382949 -1.974455,-5.6874999 -6.484375,-5.6874999 h -3.65625 v -5.630859 z M 1.7988281,-15.533203 V 5.6308594 H 5.8945312 V 0 h 3.5371094 c 2.8002764,0 4.6882794,-0.52969286 6.1621094,-2.3867188 1.120111,-1.4148768 1.679688,-3.126091 1.679688,-5.1894531 0,-4.9520681 -2.771486,-7.9570311 -7.5761724,-7.9570311 z m 35.7519529,0 V 5.6308594 h 4.095703 V 0 h 3.53711 c 2.800277,0 4.688279,-0.52969286 6.162109,-2.3867188 1.120111,-1.4148768 1.679688,-3.126091 1.679688,-5.1894531 0,-4.9520681 -2.771486,-7.9570311 -7.576172,-7.9570311 z m -31.6562498,3.359375 h 2.8300782 c 3.0360906,0 4.2441406,1.060309 4.2441406,4.3027342 0,3.3898091 -1.384887,4.5410157 -4.5683594,4.5410157 H 5.8945312 Z m 35.7519528,0 h 2.830078 c 3.036091,0 4.244141,1.060309 4.244141,4.3027342 0,3.3898091 -1.384886,4.5410157 -4.568359,4.5410157 h -2.50586 z" /></g></g></g></svg>