<?xml version="1.0" encoding="UTF-8" standalone="no"?>
<svg
   xmlns:dc="http://purl.org/dc/elements/1.1/"
   xmlns:cc="http://creativecommons.org/ns#"
   xmlns:rdf="http://www.w3.org/1999/02/22-rdf-syntax-ns#"
   xmlns:svg="http://www.w3.org/2000/svg"
   xmlns="http://www.w3.org/2000/svg"
   viewBox="0 0 645.56 226.84"
   height="226.84"
   width="645.56"
   xml:space="preserve"
   id="svg2"
   version="1.1"><metadata
     id="metadata8"><rdf:RDF><cc:Work
         rdf:about=""><dc:format>image/svg+xml</dc:format><dc:type
           rdf:resource="http://purl.org/dc/dcmitype/StillImage" /></cc:Work></rdf:RDF></metadata><defs
     id="defs6" /><g
     transform="matrix(1.3333333,0,0,-1.3333333,0,226.84)"
     id="g10"><g
       transform="scale(0.1)"
       id="g12"><path
         id="path14"
         style="fill:#1574c2;fill-opacity:1;fill-rule:nonzero;stroke:none"
         d="m 1713.1,1344.11 c 0,0 -833.088,-329.05 -987.526,-986.188 h 701.306 c 0,0 -503.653,131.91 286.22,986.188 z M 626.023,357.922 H 363.648 C 364.074,774.176 474.137,1038.54 474.137,1038.54 439.008,590.672 626.023,357.922 626.023,357.922" /><path
         id="path16"
         style="fill:#4e4e55;fill-opacity:1;fill-rule:nonzero;stroke:none"
         d="m 4537.14,798.391 c -21.3,0 -38.62,-17.328 -38.62,-38.625 0,-21.301 17.32,-38.625 38.62,-38.625 21.3,0 38.63,17.324 38.63,38.625 0,21.297 -17.33,38.625 -38.63,38.625 z m 0,-82.239 c -24.04,0 -43.61,19.567 -43.61,43.614 0,24.047 19.57,43.613 43.61,43.613 24.05,0 43.62,-19.566 43.62,-43.613 0,-24.047 -19.57,-43.614 -43.62,-43.614 z m 0.17,46.332 c 1.52,0 2.97,0.055 4.37,0.18 1.4,0.117 2.62,0.457 3.65,1.012 1.04,0.562 1.87,1.34 2.52,2.34 0.64,0.992 0.95,2.41 0.95,4.246 0,1.515 -0.33,2.715 -1.01,3.593 -0.68,0.879 -1.54,1.559 -2.58,2.036 -1.04,0.48 -2.19,0.781 -3.47,0.902 -1.28,0.117 -2.52,0.176 -3.71,0.176 h -9.82 v -14.485 z m -9.1,-28.14 h -8.14 v 49.57 h 18.8 c 5.98,0 10.49,-1.121 13.53,-3.351 3.03,-2.239 4.55,-5.872 4.55,-10.899 0,-4.469 -1.24,-7.742 -3.71,-9.816 -2.48,-2.075 -5.55,-3.313 -9.23,-3.711 l 13.89,-21.793 h -9.21 l -12.82,21.191 h -7.66 z M 1760.52,397.762 v 195.726 h 160.71 c 41.67,0 73.6,-7.879 95.8,-23.679 22.21,-15.789 33.31,-39.5 33.31,-71.079 0,-19.71 -3.42,-36.05 -10.29,-49.109 -6.87,-13.07 -16.26,-23.48 -28.17,-31.262 -11.91,-7.781 -25.64,-13.179 -41.2,-16.14 -15.57,-2.969 -32.06,-4.457 -49.45,-4.457 z m 0,235.578 v 175.137 h 160.71 c 73.72,0 110.57,-30.684 110.57,-92.043 0,-11.434 -2.29,-22.204 -6.86,-32.262 -4.57,-10.102 -11.46,-18.902 -20.61,-26.461 -9.15,-7.539 -20.6,-13.492 -34.33,-17.84 -13.74,-4.351 -30.01,-6.531 -48.77,-6.531 z m -46.71,214.965 V 357.922 h 207.42 c 26.55,0 49.33,2.387 68.34,7.219 18.98,4.808 35.03,10.968 48.08,18.531 13.04,7.566 23.46,16.367 31.25,26.449 7.78,10.07 13.74,20.25 17.85,30.551 4.11,10.316 6.86,20.367 8.25,30.238 1.37,9.84 2.05,18.641 2.05,26.449 0,32.02 -9.38,58.93 -28.15,80.7 -18.79,21.742 -43.96,34.671 -75.56,38.781 v 1.398 c 12.81,2.723 24.39,7.551 34.7,14.41 10.3,6.872 19.23,15.231 26.78,25.063 7.55,9.859 13.4,20.859 17.51,32.98 4.13,12.098 6.19,24.618 6.19,37.426 0,22.895 -4.36,41.996 -13.06,57.332 -8.7,15.336 -20.26,27.723 -34.68,37.098 -14.43,9.406 -31.14,16.031 -50.15,19.922 -19,3.871 -38.79,5.836 -59.4,5.836 z M 4451.53,555.359 h -1.33 c -2.68,-4.918 -7.79,-8.461 -15.34,-10.699 -7.55,-2.211 -14.24,-3.769 -20.03,-4.66 -17.79,-3.121 -36.14,-5.891 -55.01,-8.32 -18.87,-2.442 -36.17,-6.102 -51.73,-10.981 -15.55,-4.929 -28.33,-11.949 -38.34,-21.078 -9.96,-9.101 -14.97,-22.101 -14.97,-38.992 0,-10.641 2.08,-20.117 6.33,-28.348 4.19,-8.211 9.88,-15.312 16.96,-21.312 7.14,-6.039 15.37,-10.61 24.7,-13.688 9.34,-3.121 18.91,-4.672 28.69,-4.672 16,0 31.37,2.45 46.02,7.332 14.68,4.891 27.45,12.02 38.36,21.34 10.88,9.348 19.55,20.668 26.02,34.02 6.44,13.34 9.67,28.449 9.67,45.371 z m 30.66,106.52 c 7.55,-14.438 11.34,-33.231 11.34,-56.32 l -0.06,-238.309 h -39.93 v 60.031 0 c -7.58,-11.133 -15.28,-20.98 -23.02,-29.672 -7.79,-8.668 -16.46,-15.898 -26.04,-21.668 -9.55,-5.793 -20.46,-10.23 -32.69,-13.351 -12.21,-3.129 -26.77,-4.668 -43.67,-4.668 -16.01,0 -30.99,1.867 -45.01,5.668 -14,3.769 -26.25,9.75 -36.67,18.012 -10.47,8.207 -18.72,18.66 -24.7,31.367 -6,12.652 -9.01,27.66 -9.01,45.011 0,24.008 5.35,42.801 16.01,56.372 10.69,13.558 24.76,23.878 42.38,30.968 17.53,7.141 37.35,12.141 59.32,15.032 22.03,2.878 44.38,5.679 67.05,8.359 8.87,0.848 16.69,2 23.34,3.328 6.68,1.34 12.22,3.652 16.67,6.973 4.48,3.359 7.91,7.929 10.34,13.699 2.46,5.769 3.69,13.34 3.69,22.668 0,14.18 -2.35,20.723 -7.03,29.851 -4.66,9.09 -11.11,16.34 -19.33,21.668 -8.26,5.352 -17.79,9.024 -28.66,11.024 -10.95,1.988 -22.6,3.027 -35.02,3.027 h -75.71 v 35.203 h 83.52 c 14.32,-0.152 28.59,-1.511 42.88,-4.23 15.13,-2.906 28.66,-8.344 40.69,-16.344 11.99,-7.969 21.76,-19.238 29.32,-33.699 M 2371.2,555.352 h -1.33 c -2.7,-4.922 -7.8,-8.461 -15.35,-10.692 -7.57,-2.238 -14.24,-3.801 -19.98,-4.672 -17.81,-3.117 -36.14,-5.918 -55.05,-8.359 -18.9,-2.399 -36.14,-6.109 -51.68,-10.957 -15.6,-4.922 -28.36,-11.922 -38.39,-21.031 -9.98,-9.121 -15,-22.141 -15,-39.012 0,-10.668 2.1,-20.141 6.34,-28.367 4.23,-8.242 9.89,-15.313 16.98,-21.321 7.1,-6.019 15.36,-10.589 24.68,-13.679 9.4,-3.121 18.93,-4.641 28.71,-4.641 16.01,0 31.38,2.41 46.03,7.309 14.67,4.89 27.46,12 38.37,21.32 10.9,9.359 19.55,20.691 25.98,34.031 6.45,13.328 9.69,28.457 9.69,45.367 z m 30.68,106.527 c 7.56,-14.449 11.34,-33.25 11.34,-56.359 l -0.07,-238.301 h -39.94 v 60.031 0 c -7.58,-11.102 -15.26,-20.98 -23.02,-29.66 -7.79,-8.668 -16.46,-15.899 -26.04,-21.668 -9.54,-5.762 -20.43,-10.211 -32.68,-13.344 -12.19,-3.137 -26.74,-4.656 -43.69,-4.656 -15.96,0 -31,1.859 -45,5.66 -14.02,3.758 -26.26,9.746 -36.7,18.008 -10.45,8.211 -18.65,18.672 -24.67,31.351 -6.01,12.668 -9.03,27.661 -9.03,45.02 0,24.019 5.36,42.82 16.02,56.379 10.68,13.519 24.8,23.859 42.37,30.969 17.53,7.14 37.34,12.16 59.34,15.019 22.04,2.871 44.36,5.672 67.06,8.363 8.92,0.868 16.68,2.008 23.35,3.297 6.65,1.364 12.19,3.692 16.65,7 4.47,3.364 7.91,7.91 10.38,13.703 2.41,5.789 3.65,13.348 3.65,22.68 0,14.18 -2.33,20.719 -6.98,29.859 -4.68,9.079 -11.14,16.329 -19.39,21.641 -8.24,5.34 -17.78,9.039 -28.64,11.039 -10.93,1.981 -22.62,3 -35.03,3 h -75.69 v 35.219 h 83.51 c 14.31,-0.176 28.56,-1.488 42.86,-4.215 15.11,-2.914 28.66,-8.344 40.68,-16.344 12.03,-8 21.79,-19.25 29.36,-33.691 m 696.88,-106.527 h -1.34 c -2.68,-4.922 -7.78,-8.461 -15.35,-10.692 -7.57,-2.238 -14.23,-3.801 -20.01,-4.672 -17.81,-3.117 -36.13,-5.918 -55.01,-8.359 -18.9,-2.399 -36.14,-6.109 -51.72,-10.957 -15.56,-4.922 -28.35,-11.922 -38.36,-21.031 -9.98,-9.121 -14.96,-22.141 -14.96,-39.012 0,-10.668 2.08,-20.141 6.33,-28.367 4.19,-8.242 9.88,-15.313 16.97,-21.321 7.11,-6.019 15.37,-10.589 24.68,-13.679 9.38,-3.121 18.92,-4.641 28.7,-4.641 15.98,0 31.35,2.41 46.03,7.309 14.67,4.89 27.44,12 38.36,21.32 10.87,9.359 19.55,20.691 26.01,34.031 6.4,13.328 9.67,28.457 9.67,45.367 z m 30.66,106.527 c 7.57,-14.449 11.34,-33.25 11.34,-56.359 l -0.06,-238.301 h -39.94 v 60.031 0 c -7.62,-11.102 -15.24,-20.98 -23.01,-29.66 -7.78,-8.668 -16.48,-15.899 -26.04,-21.668 -9.53,-5.762 -20.45,-10.211 -32.7,-13.344 -12.23,-3.137 -26.77,-4.656 -43.66,-4.656 -15.98,0 -31,1.859 -45.03,5.66 -13.99,3.758 -26.23,9.746 -36.65,18.008 -10.48,8.211 -18.69,18.672 -24.7,31.351 -6.02,12.668 -9.02,27.661 -9.02,45.02 0,24.019 5.35,42.82 16.01,56.379 10.7,13.519 24.76,23.859 42.37,30.969 17.55,7.14 37.34,12.16 59.35,15.019 22.02,2.871 44.34,5.672 67.06,8.363 8.85,0.868 16.66,2.008 23.32,3.297 6.66,1.364 12.22,3.692 16.69,7 4.43,3.364 7.89,7.91 10.34,13.703 2.41,5.789 3.67,13.348 3.67,22.68 0,14.18 -2.35,20.719 -7,29.859 -4.69,9.079 -11.14,16.329 -19.36,21.641 -8.24,5.34 -17.78,9.039 -28.7,11.039 -10.9,1.981 -22.58,3 -34.98,3 H 2933 v 33.336 l 83.53,1.883 c 14.3,-0.176 28.59,-1.488 42.86,-4.215 15.11,-2.914 28.67,-8.344 40.69,-16.344 12.02,-8 21.78,-19.25 29.34,-33.691 m 772.79,-175.578 c -4.24,17.558 -6.34,35.25 -6.34,53.051 0,17.757 2.1,35.418 6.34,53 4.23,17.57 10.85,33.25 19.99,47.046 9.11,13.762 20.78,24.981 35.02,33.672 14.24,8.649 31.37,13.02 51.33,13.02 22.23,0 41.05,-4.371 56.4,-13.02 15.32,-8.691 27.75,-19.91 37.34,-33.672 9.53,-13.796 16.49,-29.476 20.63,-47.046 4.24,-17.582 6.39,-35.243 6.39,-53 0,-17.801 -2.15,-35.493 -6.39,-53.051 -4.14,-17.563 -11.1,-33.223 -20.63,-46.992 -9.59,-13.797 -22.02,-25.02 -37.34,-33.68 -15.35,-8.649 -34.17,-13.02 -56.4,-13.02 -19.96,0 -37.09,4.371 -51.33,13.02 -14.24,8.66 -25.91,19.883 -35.02,33.68 -9.14,13.769 -15.76,29.429 -19.99,46.992 m 269.1,-119.051 v 476.219 h -42 V 646.082 h -1.35 c -4.46,12.457 -10.81,23.316 -18.99,32.648 -8.29,9.372 -17.66,17.231 -28.38,23.696 -10.66,6.445 -22.11,11.219 -34.33,14.34 -12.23,3.097 -24.83,4.675 -37.71,4.675 -26.19,0 -49.02,-4.894 -68.35,-14.703 -19.3,-9.797 -35.44,-23.008 -48.35,-39.66 -12.92,-16.68 -22.47,-36.047 -28.67,-58.008 -6.25,-22.039 -9.35,-45.281 -9.35,-69.718 0,-24.454 3.1,-47.68 9.35,-69.723 6.2,-22.008 15.75,-41.32 28.67,-58.008 12.91,-16.672 29.05,-29.793 48.35,-39.351 19.33,-9.579 42.16,-14.348 68.35,-14.348 12.44,0 25.06,1.758 37.71,5.348 12.63,3.539 24.53,8.531 35.66,14.992 11.12,6.429 21.05,14.347 29.69,23.687 8.67,9.332 15.23,19.59 19.68,30.699 h 1.35 V 367.25 Z m -362.82,0 v 344.18 h -42.03 V 530.66 c 0,-17.34 -1.99,-34.34 -6,-51.039 -3.99,-16.652 -10.23,-31.461 -18.67,-44.332 -8.46,-12.891 -19.1,-23.23 -32.01,-31.008 -12.91,-7.793 -28.46,-11.672 -46.69,-11.672 -33.38,0 -56.83,8 -70.35,24.012 -13.62,16.027 -20.83,39.59 -21.68,70.711 V 711.43 h -42.05 V 487.988 c 0,-20.457 2.24,-38.687 6.65,-54.699 4.48,-16.008 11.48,-29.578 21.02,-40.68 9.57,-11.121 22.03,-19.711 37.38,-25.699 15.31,-5.969 33.88,-8.988 55.7,-8.988 25.78,0 49.22,6.109 70.37,18.348 21.1,12.218 37.22,29.89 48.34,53.011 h 1.35 V 367.25 Z m -392.84,296.801 c 15.55,-14.692 26.22,-34.891 32.01,-60.692 h 42.04 c -4.93,39.571 -20.15,69.129 -45.73,88.692 -25.57,19.582 -56.81,29.39 -93.7,29.39 -26.22,0 -49.46,-4.894 -69.7,-14.703 -20.21,-9.777 -37.23,-22.867 -51,-39.328 -13.83,-16.469 -24.26,-35.672 -31.37,-57.691 -7.11,-22.039 -10.69,-45.457 -10.69,-70.391 0,-24.879 3.58,-48.328 10.69,-70.367 7.11,-22.012 17.54,-41.211 31.37,-57.68 13.77,-16.441 30.79,-29.453 51,-39.011 20.24,-9.579 43.48,-14.348 69.7,-14.348 39.13,0 71.17,11.668 96.05,35.008 24.9,23.351 40.24,55.922 46.01,97.718 h -42 c -1.34,-14.218 -4.89,-27.347 -10.67,-39.328 -5.77,-12.011 -13.14,-22.371 -22.02,-31.039 -8.93,-8.66 -19.13,-15.449 -30.67,-20.34 -11.57,-4.882 -23.78,-7.332 -36.7,-7.332 -20,0 -37.55,4.231 -52.71,12.68 -15.1,8.422 -27.66,19.543 -37.68,33.313 -9.99,13.796 -17.54,29.476 -22.66,47.039 -5.1,17.578 -7.65,35.48 -7.65,53.687 0,18.262 2.55,36.152 7.65,53.692 5.12,17.558 12.67,33.242 22.66,47.031 10.02,13.758 22.58,24.871 37.68,33.34 15.16,8.449 32.71,12.699 52.71,12.699 28.01,0 49.83,-7.36 65.38,-22.039 m -928.17,47.394 V 367.25 h 42.05 v 183.449 c 0,18.199 3.08,34.981 9.34,50.332 6.18,15.36 15,28.571 26.33,39.66 11.34,11.129 45.86,40.239 92.38,40.239 v 35.183 c -31.13,1.321 -57.93,-5.601 -80.37,-20.672 -22.45,-15.132 -39.04,-36.711 -49.7,-64.722 h -1.32 v 80.726 z m 262.74,0 v -80.726 h 1.34 c 10.69,28.011 27.22,49.59 49.69,64.722 22.44,15.071 49.25,21.993 80.37,20.672 V 680.93 c -46.53,0 -81.04,-29.11 -92.39,-40.239 -11.35,-11.089 -20.11,-24.3 -26.32,-39.66 -6.24,-15.351 -9.36,-32.133 -9.36,-50.332 V 367.25 h -42.01 v 344.195 h 38.68" /></g></g></svg>