<?xml version="1.0" encoding="UTF-8"?>
<svg width="350px" height="72px" viewBox="0 0 350 72" version="1.1" xmlns="http://www.w3.org/2000/svg" xmlns:xlink="http://www.w3.org/1999/xlink">
    <!-- Generator: Sketch 49 (51002) - http://www.bohemiancoding.com/sketch -->
    <title>Artboard 2</title>
    <desc>Created with Sketch.</desc>
    <defs></defs>
    <g id="Artboard-2" stroke="none" stroke-width="1" fill="none" fill-rule="evenodd">
        <path d="M79.1445312,16.2109375 L85.0625,16.2109375 L85.0625,28.0664062 L96.1757812,16.2109375 L103.949219,16.2109375 L92.1523438,28.0664062 L104.554688,45 L96.8203125,45 L87.9335938,32.421875 L85.0625,35.3710938 L85.0625,45 L79.1445312,45 L79.1445312,16.2109375 Z M119.28125,23.203125 C121.481782,23.203125 123.281894,23.7792911 124.681641,24.9316406 C126.081387,26.0839901 126.78125,27.9947783 126.78125,30.6640625 L126.78125,45 L121.078125,45 L121.078125,32.0507812 C121.078125,30.930984 120.928387,30.0716176 120.628906,29.4726562 C120.082029,28.3789008 119.040372,27.8320312 117.503906,27.8320312 C115.615876,27.8320312 114.320316,28.6328045 113.617188,30.234375 C113.252602,31.0807334 113.070312,32.1614518 113.070312,33.4765625 L113.070312,45 L107.523438,45 L107.523438,23.75 L112.894531,23.75 L112.894531,26.8554688 C113.610681,25.7617133 114.287757,24.9739607 114.925781,24.4921875 C116.07162,23.6328082 117.523429,23.203125 119.28125,23.203125 Z M146.585938,34.3554688 C146.585938,32.7148355 146.211592,31.2630271 145.462891,30 C144.714189,28.7369729 143.500008,28.1054688 141.820312,28.1054688 C139.802073,28.1054688 138.415368,29.0624904 137.660156,30.9765625 C137.269529,31.9921926 137.074219,33.2812422 137.074219,34.84375 C137.074219,37.3177207 137.731764,39.0559846 139.046875,40.0585938 C139.828129,40.6445342 140.752599,40.9375 141.820312,40.9375 C143.369799,40.9375 144.551428,40.3385477 145.365234,39.140625 C146.179041,37.9427023 146.585938,36.3476662 146.585938,34.3554688 Z M143.421875,23.2421875 C145.908867,23.2421875 148.014965,24.1601471 149.740234,25.9960938 C151.465503,27.8320404 152.328125,30.527326 152.328125,34.0820312 C152.328125,37.83205 151.485034,40.6900943 149.798828,42.65625 C148.112622,44.6224057 145.94142,45.6054688 143.285156,45.6054688 C141.592439,45.6054688 140.186204,45.1822959 139.066406,44.3359375 C138.454424,43.8671852 137.855472,43.1835982 137.269531,42.2851562 L137.269531,53.3789062 L131.761719,53.3789062 L131.761719,23.7109375 L137.09375,23.7109375 L137.09375,26.8554688 C137.692711,25.930985 138.330726,25.2018256 139.007812,24.6679688 C140.244798,23.7174432 141.716137,23.2421875 143.421875,23.2421875 Z" id="Knp" fill="#19B5FE"></path>
        <path d="M155.046875,16.2109375 L161.160156,16.2109375 L161.160156,33.90625 C161.160156,35.8854266 161.394529,37.3307246 161.863281,38.2421875 C162.592452,39.8567789 164.180977,40.6640625 166.628906,40.6640625 C169.063814,40.6640625 170.64583,39.8567789 171.375,38.2421875 C171.843752,37.3307246 172.078125,35.8854266 172.078125,33.90625 L172.078125,16.2109375 L178.191406,16.2109375 L178.191406,33.90625 C178.191406,36.9661611 177.716151,39.3489498 176.765625,41.0546875 C174.994783,44.1797031 171.61591,45.7421875 166.628906,45.7421875 C161.641902,45.7421875 158.256519,44.1797031 156.472656,41.0546875 C155.522131,39.3489498 155.046875,36.9661611 155.046875,33.90625 L155.046875,16.2109375 Z M195.28125,23.203125 C197.481782,23.203125 199.281894,23.7792911 200.681641,24.9316406 C202.081387,26.0839901 202.78125,27.9947783 202.78125,30.6640625 L202.78125,45 L197.078125,45 L197.078125,32.0507812 C197.078125,30.930984 196.928387,30.0716176 196.628906,29.4726563 C196.082029,28.3789008 195.040372,27.8320313 193.503906,27.8320313 C191.615876,27.8320313 190.320316,28.6328045 189.617188,30.234375 C189.252602,31.0807334 189.070312,32.1614518 189.070312,33.4765625 L189.070312,45 L183.523438,45 L183.523438,23.75 L188.894531,23.75 L188.894531,26.8554688 C189.610681,25.7617133 190.287757,24.9739607 190.925781,24.4921875 C192.07162,23.6328082 193.523429,23.203125 195.28125,23.203125 Z M213.640625,21.171875 L207.996094,21.171875 L207.996094,16.0351562 L213.640625,16.0351562 L213.640625,21.171875 Z M207.996094,23.7109375 L213.640625,23.7109375 L213.640625,45 L207.996094,45 L207.996094,23.7109375 Z M232.15625,23.7109375 L238.132812,23.7109375 L230.457031,45 L224.578125,45 L216.941406,23.7109375 L223.191406,23.7109375 L227.625,39.4140625 L232.15625,23.7109375 Z M249.675781,27.734375 C248.386712,27.734375 247.387373,28.1380168 246.677734,28.9453125 C245.968095,29.7526082 245.522136,30.8463473 245.339844,32.2265625 L253.992188,32.2265625 C253.901041,30.755201 253.455082,29.6386757 252.654297,28.8769531 C251.853512,28.1152306 250.860683,27.734375 249.675781,27.734375 Z M249.675781,23.1445312 C251.446623,23.1445312 253.04166,23.4765592 254.460938,24.140625 C255.880215,24.8046908 257.052079,25.8528574 257.976562,27.2851562 C258.8099,28.5481834 259.350259,30.0130125 259.597656,31.6796875 C259.740886,32.6562549 259.799479,34.0624908 259.773438,35.8984375 L245.203125,35.8984375 C245.28125,38.0338648 245.951817,39.5312457 247.214844,40.390625 C247.983077,40.9244818 248.907547,41.1914062 249.988281,41.1914062 C251.13412,41.1914062 252.065101,40.8658887 252.78125,40.2148438 C253.171877,39.8632795 253.516926,39.3750031 253.816406,38.75 L259.5,38.75 C259.35677,40.0130271 258.699225,41.2955664 257.527344,42.5976562 C255.704418,44.6679791 253.15236,45.703125 249.871094,45.703125 C247.162747,45.703125 244.773448,44.8307379 242.703125,43.0859375 C240.632802,41.3411371 239.597656,38.5026238 239.597656,34.5703125 C239.597656,30.8853982 240.531892,28.0599057 242.400391,26.09375 C244.26889,24.1275943 246.693996,23.1445312 249.675781,23.1445312 Z M275.085938,23.203125 C275.190105,23.203125 275.277994,23.2063802 275.349609,23.2128906 C275.421224,23.2194011 275.580728,23.2291666 275.828125,23.2421875 L275.828125,28.9453125 C275.476561,28.9062498 275.164064,28.8802084 274.890625,28.8671875 C274.617186,28.8541666 274.395834,28.8476562 274.226562,28.8476562 C271.986968,28.8476562 270.483077,29.5768156 269.714844,31.0351563 C269.285154,31.8554729 269.070312,33.1184811 269.070312,34.8242188 L269.070312,45 L263.464844,45 L263.464844,23.7109375 L268.777344,23.7109375 L268.777344,27.421875 C269.636723,26.0025971 270.385413,25.0325547 271.023438,24.5117188 C272.065109,23.6393186 273.419263,23.203125 275.085938,23.203125 Z M283.425781,38.203125 C283.542969,39.1927133 283.796873,39.8958313 284.1875,40.3125 C284.877608,41.0546912 286.153637,41.4257812 288.015625,41.4257812 C289.10938,41.4257812 289.978512,41.2630225 290.623047,40.9375 C291.267581,40.6119775 291.589844,40.1237012 291.589844,39.4726562 C291.589844,38.8476531 291.32943,38.3723975 290.808594,38.046875 C290.287758,37.7213525 288.354183,37.1614623 285.007812,36.3671875 C282.598946,35.7682262 280.899745,35.0195357 279.910156,34.1210938 C278.920568,33.2356727 278.425781,31.9596438 278.425781,30.2929688 C278.425781,28.3268131 279.197258,26.6373769 280.740234,25.2246094 C282.283211,23.8118419 284.454413,23.1054688 287.253906,23.1054688 C289.91017,23.1054688 292.074861,23.6360624 293.748047,24.6972656 C295.421232,25.7584688 296.381509,27.5911328 296.628906,30.1953125 L291.0625,30.1953125 C290.984375,29.4791631 290.782554,28.9127625 290.457031,28.4960938 C289.845049,27.7408816 288.803393,27.3632812 287.332031,27.3632812 C286.121088,27.3632812 285.258466,27.5520814 284.744141,27.9296875 C284.229815,28.3072936 283.972656,28.7499975 283.972656,29.2578125 C283.972656,29.8958365 284.246091,30.3580715 284.792969,30.6445312 C285.339846,30.9440119 287.273421,31.4583297 290.59375,32.1875 C292.807303,32.7083359 294.467442,33.4960885 295.574219,34.5507812 C296.667974,35.6184949 297.214844,36.953117 297.214844,38.5546875 C297.214844,40.664073 296.430346,42.386061 294.861328,43.7207031 C293.29231,45.0553452 290.867204,45.7226562 287.585938,45.7226562 C284.239567,45.7226562 281.768888,45.0162831 280.173828,43.6035156 C278.578768,42.1907481 277.78125,40.3906359 277.78125,38.203125 L283.425781,38.203125 Z M307.058594,21.171875 L301.414062,21.171875 L301.414062,16.0351562 L307.058594,16.0351562 L307.058594,21.171875 Z M301.414062,23.7109375 L307.058594,23.7109375 L307.058594,45 L301.414062,45 L301.414062,23.7109375 Z M310.261719,27.8710938 L310.261719,23.90625 L313.230469,23.90625 L313.230469,17.96875 L318.738281,17.96875 L318.738281,23.90625 L322.195312,23.90625 L322.195312,27.8710938 L318.738281,27.8710938 L318.738281,39.1210938 C318.738281,39.9934939 318.848957,40.5371083 319.070312,40.7519531 C319.291668,40.9667979 319.968744,41.0742188 321.101562,41.0742188 C321.270834,41.0742188 321.449869,41.0709636 321.638672,41.0644531 C321.827475,41.0579427 322.01302,41.0481771 322.195312,41.0351562 L322.195312,45.1953125 L319.558594,45.2929688 C316.928372,45.384115 315.131515,44.9283904 314.167969,43.9257812 C313.542966,43.2877572 313.230469,42.3046941 313.230469,40.9765625 L313.230469,27.8710938 L310.261719,27.8710938 Z M326.628906,49.0820312 L327.332031,49.1210938 C327.878909,49.1471355 328.399737,49.1276045 328.894531,49.0625 C329.389325,48.9973955 329.805988,48.8476574 330.144531,48.6132812 C330.470054,48.391926 330.772785,47.929691 331.052734,47.2265625 C331.332684,46.523434 331.446615,46.0937508 331.394531,45.9375 L323.582031,23.7109375 L329.773438,23.7109375 L334.421875,39.4140625 L338.816406,23.7109375 L344.734375,23.7109375 L337.429688,44.6484375 C336.02343,48.684916 334.91016,51.1881462 334.089844,52.1582031 C333.269527,53.1282601 331.628919,53.6132812 329.167969,53.6132812 C328.673175,53.6132812 328.276043,53.6100261 327.976562,53.6035156 C327.677082,53.5970052 327.227868,53.5742189 326.628906,53.5351562 L326.628906,49.0820312 Z" id="University" fill="#6D665C"></path>
        <path d="M147.281738,51.2407227 L152.123047,51.2407227 C153.080083,51.2407227 153.85156,51.5104953 154.4375,52.0500488 C155.02344,52.5896023 155.316406,53.3476514 155.316406,54.3242188 C155.316406,55.1640667 155.055178,55.8952606 154.532715,56.5178223 C154.010251,57.140384 153.207037,57.4516602 152.123047,57.4516602 L148.739258,57.4516602 L148.739258,62 L147.281738,62 L147.281738,51.2407227 Z M153.844238,54.331543 C153.844238,53.5405234 153.551272,53.0034194 152.965332,52.7202148 C152.643065,52.5688469 152.201175,52.4931641 151.639648,52.4931641 L148.739258,52.4931641 L148.739258,56.2211914 L151.639648,56.2211914 C152.293949,56.2211914 152.824949,56.0820326 153.232666,55.8037109 C153.640383,55.5253892 153.844238,55.0346715 153.844238,54.331543 Z M157.184082,51.2407227 L158.65625,51.2407227 L158.65625,55.6865234 L164.251953,55.6865234 L164.251953,51.2407227 L165.724121,51.2407227 L165.724121,62 L164.251953,62 L164.251953,56.9682617 L158.65625,56.9682617 L158.65625,62 L157.184082,62 L157.184082,51.2407227 Z M168.119141,51.2407227 L172.960449,51.2407227 C173.917485,51.2407227 174.688962,51.5104953 175.274902,52.0500488 C175.860843,52.5896023 176.153809,53.3476514 176.153809,54.3242188 C176.153809,55.1640667 175.892581,55.8952606 175.370117,56.5178223 C174.847654,57.140384 174.044439,57.4516602 172.960449,57.4516602 L169.57666,57.4516602 L169.57666,62 L168.119141,62 L168.119141,51.2407227 Z M174.681641,54.331543 C174.681641,53.5405234 174.388675,53.0034194 173.802734,52.7202148 C173.480467,52.5688469 173.038577,52.4931641 172.477051,52.4931641 L169.57666,52.4931641 L169.57666,56.2211914 L172.477051,56.2211914 C173.131351,56.2211914 173.662351,56.0820326 174.070068,55.8037109 C174.477785,55.5253892 174.681641,55.0346715 174.681641,54.331543 Z M189.981934,51.2407227 L189.981934,52.5224609 L186.356445,52.5224609 L186.356445,62 L184.876953,62 L184.876953,52.5224609 L181.251465,52.5224609 L181.251465,51.2407227 L189.981934,51.2407227 Z M192.45752,54.1557617 L192.45752,59.3632812 C192.45752,59.7636739 192.520995,60.090819 192.647949,60.3447266 C192.882325,60.8134789 193.319333,61.0478516 193.958984,61.0478516 C194.876958,61.0478516 195.501951,60.6376994 195.833984,59.8173828 C196.014649,59.3779275 196.10498,58.7749062 196.10498,58.0083008 L196.10498,54.1557617 L197.42334,54.1557617 L197.42334,62 L196.178223,62 L196.192871,60.8427734 C196.021972,61.1406265 195.809572,61.3920888 195.555664,61.597168 C195.052732,62.0073263 194.442386,62.2124023 193.724609,62.2124023 C192.60644,62.2124023 191.844729,61.8388709 191.439453,61.0917969 C191.219725,60.6914042 191.109863,60.1567416 191.109863,59.487793 L191.109863,54.1557617 L192.45752,54.1557617 Z M199.745117,51.9658203 L201.078125,51.9658203 L201.078125,54.1557617 L202.330566,54.1557617 L202.330566,55.2324219 L201.078125,55.2324219 L201.078125,60.3520508 C201.078125,60.6254896 201.170898,60.8085933 201.356445,60.9013672 C201.458985,60.9550784 201.629882,60.9819336 201.869141,60.9819336 C201.932618,60.9819336 202.000976,60.9807129 202.074219,60.9782715 C202.147461,60.9758301 202.23291,60.9697266 202.330566,60.9599609 L202.330566,62 C202.179198,62.0439455 202.021729,62.0756835 201.858154,62.0952148 C201.694579,62.1147462 201.517579,62.1245117 201.327148,62.1245117 C200.711911,62.1245117 200.294435,61.9670426 200.074707,61.6520996 C199.854979,61.3371566 199.745117,60.9282252 199.745117,60.425293 L199.745117,55.2324219 L198.683105,55.2324219 L198.683105,54.1557617 L199.745117,54.1557617 L199.745117,51.9658203 Z M206.761719,61.1503906 C207.635747,61.1503906 208.235106,60.8195834 208.559814,60.157959 C208.884523,59.4963346 209.046875,58.760258 209.046875,57.949707 C209.046875,57.2172815 208.929689,56.6215843 208.695312,56.1625977 C208.324217,55.4399378 207.684575,55.0786133 206.776367,55.0786133 C205.970699,55.0786133 205.384767,55.3862274 205.018555,56.0014648 C204.652342,56.6167023 204.469238,57.3588824 204.469238,58.2280273 C204.469238,59.0629925 204.652342,59.7587863 205.018555,60.3154297 C205.384767,60.8720731 205.965816,61.1503906 206.761719,61.1503906 Z M206.812988,53.9287109 C207.823736,53.9287109 208.678219,54.2656216 209.376465,54.9394531 C210.074711,55.6132846 210.423828,56.6044856 210.423828,57.9130859 C210.423828,59.1777407 210.116214,60.2226521 209.500977,61.0478516 C208.885739,61.873051 207.931159,62.2856445 206.637207,62.2856445 C205.5581,62.2856445 204.701175,61.9206579 204.066406,61.1906738 C203.431637,60.4606897 203.114258,59.4804749 203.114258,58.25 C203.114258,56.931634 203.448727,55.8818398 204.117676,55.1005859 C204.786624,54.319332 205.685053,53.9287109 206.812988,53.9287109 Z M212.027832,54.1557617 L213.280273,54.1557617 L213.280273,55.5107422 C213.382813,55.247069 213.634275,54.9260273 214.034668,54.5476074 C214.435061,54.1691876 214.896482,53.9799805 215.418945,53.9799805 C215.443359,53.9799805 215.484863,53.9824219 215.543457,53.9873047 C215.602051,53.9921875 215.702148,54.0019531 215.84375,54.0166016 L215.84375,55.4082031 C215.765625,55.3935546 215.693604,55.3837891 215.627686,55.3789062 C215.561767,55.3740234 215.489746,55.371582 215.411621,55.371582 C214.747555,55.371582 214.237306,55.5852029 213.880859,56.0124512 C213.524412,56.4396994 213.346191,56.9316378 213.346191,57.4882812 L213.346191,62 L212.027832,62 L212.027832,54.1557617 Z M216.986328,54.1923828 L218.32666,54.1923828 L218.32666,62 L216.986328,62 L216.986328,54.1923828 Z M216.986328,51.2407227 L218.32666,51.2407227 L218.32666,52.7348633 L216.986328,52.7348633 L216.986328,51.2407227 Z M221.32959,59.9125977 C221.32959,60.2934589 221.468749,60.5937489 221.74707,60.8134766 C222.025392,61.0332042 222.354979,61.1430664 222.73584,61.1430664 C223.199709,61.1430664 223.648924,61.0356456 224.083496,60.8208008 C224.815922,60.4643537 225.182129,59.8808634 225.182129,59.0703125 L225.182129,58.0083008 C225.020995,58.1108404 224.813478,58.1962887 224.55957,58.2646484 C224.305663,58.3330082 224.056642,58.3818358 223.8125,58.4111328 L223.01416,58.5136719 C222.535642,58.5771488 222.176759,58.6772454 221.9375,58.8139648 C221.532225,59.0434582 221.32959,59.4096655 221.32959,59.9125977 Z M224.522949,57.246582 C224.825685,57.2075193 225.02832,57.0805675 225.130859,56.8657227 C225.189453,56.7485346 225.21875,56.5800792 225.21875,56.3603516 C225.21875,55.9111306 225.058839,55.5852061 224.739014,55.3825684 C224.419188,55.1799306 223.961429,55.0786133 223.365723,55.0786133 C222.677243,55.0786133 222.188966,55.2641583 221.900879,55.6352539 C221.739745,55.8403331 221.634766,56.1455058 221.585938,56.5507812 L220.355469,56.5507812 C220.379883,55.5839795 220.693601,54.9113788 221.296631,54.532959 C221.899661,54.1545391 222.599117,53.965332 223.39502,53.965332 C224.317876,53.965332 225.06738,54.1411115 225.643555,54.4926758 C226.214847,54.84424 226.500488,55.3911096 226.500488,56.1333008 L226.500488,60.6523438 C226.500488,60.7890632 226.528564,60.8989254 226.584717,60.9819336 C226.640869,61.0649418 226.759276,61.1064453 226.939941,61.1064453 C226.998535,61.1064453 227.064453,61.1027832 227.137695,61.095459 C227.210938,61.0881347 227.289062,61.0771485 227.37207,61.0625 L227.37207,62.0366211 C227.166991,62.0952151 227.010743,62.1318359 226.90332,62.1464844 C226.795898,62.1611329 226.649415,62.168457 226.463867,62.168457 C226.009763,62.168457 225.680177,62.0073258 225.475098,61.6850586 C225.367675,61.5141593 225.291992,61.2724625 225.248047,60.9599609 C224.979491,61.3115252 224.593753,61.6166979 224.09082,61.8754883 C223.587888,62.1342786 223.033694,62.2636719 222.428223,62.2636719 C221.70068,62.2636719 221.106203,62.0427268 220.644775,61.6008301 C220.183347,61.1589333 219.952637,60.6059604 219.952637,59.9418945 C219.952637,59.2143518 220.179685,58.6503926 220.633789,58.25 C221.087893,57.8496074 221.68359,57.6030278 222.420898,57.5102539 L224.522949,57.246582 Z M228.697754,51.2407227 L230.016113,51.2407227 L230.016113,62 L228.697754,62 L228.697754,51.2407227 Z M237.289062,58.5283203 C237.323242,59.1386749 237.467284,59.6342754 237.721191,60.0151367 C238.204592,60.7280309 239.056635,61.0844727 240.277344,61.0844727 C240.824221,61.0844727 241.322263,61.0063484 241.771484,60.8500977 C242.640629,60.5473618 243.075195,60.005375 243.075195,59.2241211 C243.075195,58.6381807 242.892092,58.2207044 242.525879,57.9716797 C242.154783,57.7275378 241.573734,57.5151376 240.782715,57.3344727 L239.325195,57.0048828 C238.373042,56.790038 237.699221,56.553224 237.303711,56.2944336 C236.620114,55.8452126 236.27832,55.1738326 236.27832,54.2802734 C236.27832,53.3134717 236.61279,52.5200226 237.281738,51.8999023 C237.950687,51.2797821 238.897943,50.9697266 240.123535,50.9697266 C241.25147,50.9697266 242.209713,51.2419406 242.998291,51.786377 C243.786869,52.3308133 244.181152,53.2011659 244.181152,54.3974609 L242.811523,54.3974609 C242.738281,53.8212862 242.582032,53.3793961 242.342773,53.0717773 C241.898435,52.5102511 241.144048,52.2294922 240.07959,52.2294922 C239.220211,52.2294922 238.602541,52.4101544 238.226562,52.7714844 C237.850584,53.1328143 237.662598,53.552732 237.662598,54.03125 C237.662598,54.5585964 237.882322,54.9443347 238.321777,55.1884766 C238.609865,55.3447273 239.261714,55.5400379 240.277344,55.7744141 L241.786133,56.1186523 C242.513676,56.2846688 243.075193,56.5117173 243.470703,56.7998047 C244.1543,57.3027369 244.496094,58.0327101 244.496094,58.9897461 C244.496094,60.1811583 244.062748,61.0332006 243.196045,61.5458984 C242.329341,62.0585963 241.322271,62.3149414 240.174805,62.3149414 C238.836907,62.3149414 237.789555,61.9731479 237.032715,61.2895508 C236.275875,60.6108365 235.904785,59.6904355 235.919434,58.5283203 L237.289062,58.5283203 Z M249.190918,53.9287109 C250.074711,53.9287109 250.793698,54.1435525 251.3479,54.5732422 C251.902102,55.0029318 252.235351,55.7426705 252.347656,56.7924805 L251.065918,56.7924805 C250.987793,56.3090796 250.809572,55.9074723 250.53125,55.5876465 C250.252928,55.2678207 249.806155,55.1079102 249.190918,55.1079102 C248.35107,55.1079102 247.75049,55.5180623 247.38916,56.3383789 C247.154784,56.8706081 247.037598,57.5273398 247.037598,58.3085938 C247.037598,59.0947305 247.203612,59.756345 247.535645,60.293457 C247.867677,60.8305691 248.390133,61.0991211 249.103027,61.0991211 C249.649905,61.0991211 250.08325,60.9318864 250.403076,60.5974121 C250.722902,60.2629378 250.943847,59.8051787 251.065918,59.2241211 L252.347656,59.2241211 C252.201171,60.2641654 251.834964,61.0246558 251.249023,61.5056152 C250.663083,61.9865747 249.913579,62.2270508 249.000488,62.2270508 C247.975093,62.2270508 247.15723,61.8522987 246.546875,61.1027832 C245.93652,60.3532677 245.631348,59.4169978 245.631348,58.2939453 C245.631348,56.9169853 245.965817,55.8452187 246.634766,55.0786133 C247.303714,54.3120079 248.155757,53.9287109 249.190918,53.9287109 Z M253.702637,54.1557617 L254.955078,54.1557617 L254.955078,55.5107422 C255.057618,55.247069 255.30908,54.9260273 255.709473,54.5476074 C256.109865,54.1691876 256.571286,53.9799805 257.09375,53.9799805 C257.118164,53.9799805 257.159668,53.9824219 257.218262,53.9873047 C257.276856,53.9921875 257.376952,54.0019531 257.518555,54.0166016 L257.518555,55.4082031 C257.440429,55.3935546 257.368409,55.3837891 257.30249,55.3789062 C257.236572,55.3740234 257.164551,55.371582 257.086426,55.371582 C256.42236,55.371582 255.912111,55.5852029 255.555664,56.0124512 C255.199217,56.4396994 255.020996,56.9316378 255.020996,57.4882812 L255.020996,62 L253.702637,62 L253.702637,54.1557617 Z M261.927734,53.9799805 C262.484378,53.9799805 263.023923,54.1105944 263.546387,54.3718262 C264.06885,54.6330579 264.466796,54.9711893 264.740234,55.3862305 C265.003908,55.7817403 265.179687,56.2431614 265.267578,56.7705078 C265.345704,57.1318377 265.384766,57.7080039 265.384766,58.4990234 L259.635254,58.4990234 C259.659668,59.2949259 259.847654,59.9333472 260.199219,60.4143066 C260.550783,60.8952661 261.095211,61.1357422 261.83252,61.1357422 C262.521,61.1357422 263.07031,60.9086937 263.480469,60.4545898 C263.714845,60.1909167 263.880859,59.8857439 263.978516,59.5390625 L265.274902,59.5390625 C265.240722,59.8271499 265.127198,60.1481916 264.934326,60.5021973 C264.741454,60.8562029 264.525392,61.1455067 264.286133,61.3701172 C263.88574,61.7607441 263.39014,62.0244134 262.799316,62.1611328 C262.481932,62.2392582 262.123049,62.2783203 261.722656,62.2783203 C260.746089,62.2783203 259.91846,61.9230993 259.239746,61.2126465 C258.561032,60.5021937 258.22168,59.5073306 258.22168,58.2280273 C258.22168,56.9682554 258.563473,55.9453164 259.24707,55.1591797 C259.930667,54.3730429 260.824213,53.9799805 261.927734,53.9799805 Z M264.029785,57.4516602 C263.976074,56.8803682 263.851563,56.4238298 263.65625,56.0820312 C263.29492,55.4472625 262.691899,55.1298828 261.847168,55.1298828 C261.241696,55.1298828 260.733889,55.3483865 260.32373,55.7854004 C259.913572,56.2224143 259.696289,56.7778287 259.671875,57.4516602 L264.029785,57.4516602 Z M270.27002,53.9799805 C270.826663,53.9799805 271.366208,54.1105944 271.888672,54.3718262 C272.411135,54.6330579 272.809081,54.9711893 273.08252,55.3862305 C273.346193,55.7817403 273.521972,56.2431614 273.609863,56.7705078 C273.687989,57.1318377 273.727051,57.7080039 273.727051,58.4990234 L267.977539,58.4990234 C268.001953,59.2949259 268.18994,59.9333472 268.541504,60.4143066 C268.893068,60.8952661 269.437496,61.1357422 270.174805,61.1357422 C270.863285,61.1357422 271.412596,60.9086937 271.822754,60.4545898 C272.05713,60.1909167 272.223144,59.8857439 272.320801,59.5390625 L273.617188,59.5390625 C273.583008,59.8271499 273.469483,60.1481916 273.276611,60.5021973 C273.083739,60.8562029 272.867677,61.1455067 272.628418,61.3701172 C272.228025,61.7607441 271.732425,62.0244134 271.141602,62.1611328 C270.824217,62.2392582 270.465334,62.2783203 270.064941,62.2783203 C269.088374,62.2783203 268.260746,61.9230993 267.582031,61.2126465 C266.903317,60.5021937 266.563965,59.5073306 266.563965,58.2280273 C266.563965,56.9682554 266.905758,55.9453164 267.589355,55.1591797 C268.272953,54.3730429 269.166498,53.9799805 270.27002,53.9799805 Z M272.37207,57.4516602 C272.318359,56.8803682 272.193849,56.4238298 271.998535,56.0820312 C271.637205,55.4472625 271.034184,55.1298828 270.189453,55.1298828 C269.583981,55.1298828 269.076174,55.3483865 268.666016,55.7854004 C268.255857,56.2224143 268.038574,56.7778287 268.01416,57.4516602 L272.37207,57.4516602 Z M275.345703,54.1557617 L276.598145,54.1557617 L276.598145,55.269043 C276.96924,54.8100563 277.362303,54.4804698 277.777344,54.2802734 C278.192385,54.0800771 278.653806,53.9799805 279.161621,53.9799805 C280.274908,53.9799805 281.026854,54.3681602 281.41748,55.1445312 C281.632325,55.5693381 281.739746,56.1772421 281.739746,56.9682617 L281.739746,62 L280.399414,62 L280.399414,57.0561523 C280.399414,56.5776343 280.328614,56.191896 280.187012,55.8989258 C279.952636,55.4106421 279.527835,55.1665039 278.912598,55.1665039 C278.600096,55.1665039 278.343751,55.1982419 278.143555,55.2617188 C277.782225,55.3691412 277.464845,55.5839828 277.191406,55.90625 C276.971679,56.1650404 276.828858,56.4323717 276.762939,56.708252 C276.697021,56.9841322 276.664062,57.3784154 276.664062,57.8911133 L276.664062,62 L275.345703,62 L275.345703,54.1557617 Z M286.712891,53.9287109 C287.596684,53.9287109 288.315671,54.1435525 288.869873,54.5732422 C289.424075,55.0029318 289.757324,55.7426705 289.869629,56.7924805 L288.587891,56.7924805 C288.509765,56.3090796 288.331544,55.9074723 288.053223,55.5876465 C287.774901,55.2678207 287.328128,55.1079102 286.712891,55.1079102 C285.873043,55.1079102 285.272463,55.5180623 284.911133,56.3383789 C284.676757,56.8706081 284.55957,57.5273398 284.55957,58.3085938 C284.55957,59.0947305 284.725584,59.756345 285.057617,60.293457 C285.38965,60.8305691 285.912106,61.0991211 286.625,61.0991211 C287.171878,61.0991211 287.605223,60.9318864 287.925049,60.5974121 C288.244875,60.2629378 288.46582,59.8051787 288.587891,59.2241211 L289.869629,59.2241211 C289.723144,60.2641654 289.356937,61.0246558 288.770996,61.5056152 C288.185056,61.9865747 287.435551,62.2270508 286.522461,62.2270508 C285.497065,62.2270508 284.679202,61.8522987 284.068848,61.1027832 C283.458493,60.3532677 283.15332,59.4169978 283.15332,58.2939453 C283.15332,56.9169853 283.48779,55.8452187 284.156738,55.0786133 C284.825687,54.3120079 285.677729,53.9287109 286.712891,53.9287109 Z M292.19873,59.9125977 C292.19873,60.2934589 292.337889,60.5937489 292.616211,60.8134766 C292.894533,61.0332042 293.224119,61.1430664 293.60498,61.1430664 C294.06885,61.1430664 294.518064,61.0356456 294.952637,60.8208008 C295.685062,60.4643537 296.05127,59.8808634 296.05127,59.0703125 L296.05127,58.0083008 C295.890136,58.1108404 295.682618,58.1962887 295.428711,58.2646484 C295.174803,58.3330082 294.925782,58.3818358 294.681641,58.4111328 L293.883301,58.5136719 C293.404783,58.5771488 293.0459,58.6772454 292.806641,58.8139648 C292.401365,59.0434582 292.19873,59.4096655 292.19873,59.9125977 Z M295.39209,57.246582 C295.694826,57.2075193 295.89746,57.0805675 296,56.8657227 C296.058594,56.7485346 296.087891,56.5800792 296.087891,56.3603516 C296.087891,55.9111306 295.92798,55.5852061 295.608154,55.3825684 C295.288328,55.1799306 294.830569,55.0786133 294.234863,55.0786133 C293.546383,55.0786133 293.058107,55.2641583 292.77002,55.6352539 C292.608886,55.8403331 292.503906,56.1455058 292.455078,56.5507812 L291.224609,56.5507812 C291.249024,55.5839795 291.562741,54.9113788 292.165771,54.532959 C292.768802,54.1545391 293.468258,53.965332 294.26416,53.965332 C295.187016,53.965332 295.936521,54.1411115 296.512695,54.4926758 C297.083987,54.84424 297.369629,55.3911096 297.369629,56.1333008 L297.369629,60.6523438 C297.369629,60.7890632 297.397705,60.8989254 297.453857,60.9819336 C297.51001,61.0649418 297.628417,61.1064453 297.809082,61.1064453 C297.867676,61.1064453 297.933593,61.1027832 298.006836,61.095459 C298.080078,61.0881347 298.158203,61.0771485 298.241211,61.0625 L298.241211,62.0366211 C298.036132,62.0952151 297.879883,62.1318359 297.772461,62.1464844 C297.665039,62.1611329 297.518556,62.168457 297.333008,62.168457 C296.878904,62.168457 296.549317,62.0073258 296.344238,61.6850586 C296.236816,61.5141593 296.161133,61.2724625 296.117188,60.9599609 C295.848631,61.3115252 295.462893,61.6166979 294.959961,61.8754883 C294.457029,62.1342786 293.902835,62.2636719 293.297363,62.2636719 C292.569821,62.2636719 291.975344,62.0427268 291.513916,61.6008301 C291.052488,61.1589333 290.821777,60.6059604 290.821777,59.9418945 C290.821777,59.2143518 291.048826,58.6503926 291.50293,58.25 C291.957034,57.8496074 292.552731,57.6030278 293.290039,57.5102539 L295.39209,57.246582 Z M300.313965,59.5390625 C300.353028,59.9785178 300.46289,60.3154285 300.643555,60.5498047 C300.975588,60.9746115 301.551754,61.1870117 302.37207,61.1870117 C302.860354,61.1870117 303.290037,61.0808116 303.661133,60.8684082 C304.032228,60.6560048 304.217773,60.3276389 304.217773,59.8833008 C304.217773,59.546385 304.068849,59.2900399 303.770996,59.1142578 C303.580565,59.0068354 303.204593,58.8823249 302.643066,58.7407227 L301.595703,58.4770508 C300.926754,58.3110343 300.433595,58.1254893 300.116211,57.9204102 C299.549802,57.5639631 299.266602,57.0708039 299.266602,56.440918 C299.266602,55.6987268 299.533933,55.0981468 300.068604,54.6391602 C300.603274,54.1801735 301.322261,53.9506836 302.225586,53.9506836 C303.407232,53.9506836 304.259275,54.2973598 304.781738,54.9907227 C305.108888,55.430178 305.267578,55.9038061 305.257812,56.4116211 L304.012695,56.4116211 C303.988281,56.113768 303.883302,55.8427747 303.697754,55.5986328 C303.395018,55.2519514 302.870121,55.0786133 302.123047,55.0786133 C301.624998,55.0786133 301.247804,55.1738272 300.991455,55.3642578 C300.735106,55.5546885 300.606934,55.8061508 300.606934,56.1186523 C300.606934,56.4604509 300.775389,56.7338857 301.112305,56.9389648 C301.307618,57.0610358 301.595701,57.1684566 301.976562,57.2612305 L302.848145,57.4736328 C303.795415,57.7031261 304.430174,57.9252919 304.752441,58.1401367 C305.265139,58.4770525 305.521484,59.0068323 305.521484,59.7294922 C305.521484,60.4277379 305.256594,61.0307592 304.726807,61.5385742 C304.197019,62.0463893 303.390142,62.300293 302.306152,62.300293 C301.139154,62.300293 300.312747,62.035403 299.826904,61.5056152 C299.341062,60.9758274 299.081055,60.3203164 299.046875,59.5390625 L300.313965,59.5390625 Z M307.293945,51.9658203 L308.626953,51.9658203 L308.626953,54.1557617 L309.879395,54.1557617 L309.879395,55.2324219 L308.626953,55.2324219 L308.626953,60.3520508 C308.626953,60.6254896 308.719726,60.8085933 308.905273,60.9013672 C309.007813,60.9550784 309.17871,60.9819336 309.417969,60.9819336 C309.481446,60.9819336 309.549804,60.9807129 309.623047,60.9782715 C309.696289,60.9758301 309.781738,60.9697266 309.879395,60.9599609 L309.879395,62 C309.728027,62.0439455 309.570557,62.0756835 309.406982,62.0952148 C309.243407,62.1147462 309.066407,62.1245117 308.875977,62.1245117 C308.260739,62.1245117 307.843263,61.9670426 307.623535,61.6520996 C307.403807,61.3371566 307.293945,60.9282252 307.293945,60.425293 L307.293945,55.2324219 L306.231934,55.2324219 L306.231934,54.1557617 L307.293945,54.1557617 L307.293945,51.9658203 Z M311.981445,59.5390625 C312.020508,59.9785178 312.13037,60.3154285 312.311035,60.5498047 C312.643068,60.9746115 313.219234,61.1870117 314.039551,61.1870117 C314.527834,61.1870117 314.957518,61.0808116 315.328613,60.8684082 C315.699709,60.6560048 315.885254,60.3276389 315.885254,59.8833008 C315.885254,59.546385 315.73633,59.2900399 315.438477,59.1142578 C315.248046,59.0068354 314.872073,58.8823249 314.310547,58.7407227 L313.263184,58.4770508 C312.594235,58.3110343 312.101076,58.1254893 311.783691,57.9204102 C311.217282,57.5639631 310.934082,57.0708039 310.934082,56.440918 C310.934082,55.6987268 311.201413,55.0981468 311.736084,54.6391602 C312.270755,54.1801735 312.989742,53.9506836 313.893066,53.9506836 C315.074713,53.9506836 315.926755,54.2973598 316.449219,54.9907227 C316.776369,55.430178 316.935059,55.9038061 316.925293,56.4116211 L315.680176,56.4116211 C315.655762,56.113768 315.550782,55.8427747 315.365234,55.5986328 C315.062498,55.2519514 314.537601,55.0786133 313.790527,55.0786133 C313.292478,55.0786133 312.915284,55.1738272 312.658936,55.3642578 C312.402587,55.5546885 312.274414,55.8061508 312.274414,56.1186523 C312.274414,56.4604509 312.442869,56.7338857 312.779785,56.9389648 C312.975099,57.0610358 313.263182,57.1684566 313.644043,57.2612305 L314.515625,57.4736328 C315.462895,57.7031261 316.097655,57.9252919 316.419922,58.1401367 C316.93262,58.4770525 317.188965,59.0068323 317.188965,59.7294922 C317.188965,60.4277379 316.924075,61.0307592 316.394287,61.5385742 C315.864499,62.0463893 315.057623,62.300293 313.973633,62.300293 C312.806635,62.300293 311.980227,62.035403 311.494385,61.5056152 C311.008542,60.9758274 310.748535,60.3203164 310.714355,59.5390625 L311.981445,59.5390625 Z" id="PHP-Tutorial-Screenc" fill="#6D665C"></path>
        <path d="M17.8905871,22.5000966 L37.9999142,14.0626167 L37.9999142,57.6562627 C32.3749276,54.1875203 27.8280641,49.5000322 24.3593217,43.5937963 C20.6093299,37.406311 18.4530858,30.3750778 17.8905871,22.5000966 Z M71.7498337,18.0001073 C71.7498337,27.656335 69.9685872,36.5156889 66.4060964,44.5781689 C63.3123538,51.3281528 59.1873644,57.2343887 54.0311259,62.2968767 C49.7186355,66.5156166 45.2186462,69.5624851 40.5311581,71.4374799 C38.8436622,72.1874774 37.1561662,72.1874774 35.4686702,71.4374799 C30.1249329,69.2812357 25.2030697,65.8124933 20.7030804,61.0312547 C15.734343,55.8750163 11.8437265,49.8281557 9.03123324,42.8906729 C5.84374012,35.1094422 4.24999464,26.812587 4.24999464,18.0001073 C4.24999464,16.5938606 4.62499446,15.3282387 5.37499195,14.2032413 C6.12498945,13.078244 7.15623842,12.2813702 8.46873458,11.812622 L35.4686702,0.562648863 C37.1561662,-0.187348634 38.8436622,-0.187348634 40.5311581,0.562648863 L67.5310938,11.812622 C68.8435899,12.2813702 69.8748389,13.078244 70.6248364,14.2032413 C71.3748339,15.3282387 71.7498337,16.5938606 71.7498337,18.0001073 Z M64.9998498,18.0001073 L37.9999142,6.75013411 L10.9999785,18.0001073 C10.9999785,25.5938392 12.3124747,32.7656971 14.9374692,39.515681 C17.3749626,45.7031662 20.7030804,51.0937777 24.9218203,55.6875174 C28.9530615,60.0937562 33.3124261,63.2812493 37.9999142,65.2499946 C42.5936539,63.3749998 46.859268,60.2812572 50.7967587,55.9687668 C55.1092491,51.375027 58.484241,46.0312897 60.9217345,39.937555 C63.6404773,33.0938206 64.9998498,25.781338 64.9998498,18.0001073 Z" id="shield-alt" fill="#19B5FE"></path>
        <g id="Group" transform="translate(22.000000, 20.000000)" fill="#FFFFFF">
            <ellipse id="Oval" transform="translate(7.139785, 4.301075) rotate(23.000000) translate(-7.139785, -4.301075) " cx="7.13978495" cy="4.30107527" rx="2.49462366" ry="3.61290323"></ellipse>
            <ellipse id="Oval" transform="translate(2.322581, 4.989247) rotate(23.000000) translate(-2.322581, -4.989247) " cx="2.32258065" cy="4.98924731" rx="1.46236559" ry="2.23655914"></ellipse>
            <ellipse id="Oval" transform="translate(11.440860, 6.881720) rotate(35.000000) translate(-11.440860, -6.881720) " cx="11.4408602" cy="6.88172043" rx="1.97849462" ry="2.92473118"></ellipse>
            <ellipse id="Oval" transform="translate(12.989247, 11.096774) rotate(49.000000) translate(-12.989247, -11.096774) " cx="12.9892473" cy="11.0967742" rx="1.6344086" ry="2.49462366"></ellipse>
            <path d="M3.99437318,13.953195 C6.29790107,15.078625 8.77419355,14.1095442 8.77419355,12.9121723 C8.77419355,11.7148003 6.70101845,11.7469093 4.91578433,10.6894481 C4.08083725,10.1948775 3.27452071,7.93214459 1.69084529,9.47961082 C1.27498767,9.88596027 1.69084529,12.827765 3.99437318,13.953195 Z" id="Oval-2"></path>
        </g>
    </g>
</svg>