<svg id="Layer_1" data-name="Layer 1" xmlns="http://www.w3.org/2000/svg" viewBox="0 0 364.62 61.09"><defs><style>.cls-1{fill:#0000c2;}.cls-2{fill:#ffa816;}.cls-3{fill:#73be1e;}.cls-4{fill:#ff2203;}.cls-5{fill:#fff;}</style></defs><title>learninga-z</title><rect class="cls-1" x="5.76" y="29.02" width="38.65" height="28.96"/><rect class="cls-2" x="43.12" y="24.96" width="40.37" height="29.69"/><rect class="cls-3" x="2.12" y="2.21" width="40.14" height="27.05"/><rect class="cls-4" x="39.5" width="40.37" height="28.53"/><path class="cls-5" d="M252.88,257.08c-.29-.33.37-1.88.31-3l-.35-6.56c-.07-1.17-.36-2.29.39-3,1.06-1.05,3.62-1,4.3.06s-.54,1.66-.5,2.7l.23,6.31c0,1.24.85,2.13-.06,3.17C256.1,257.92,254,258.34,252.88,257.08Zm-36.22,12.71,6.29,2.86c1.21.51,3.1.6,3.35,1,.92,1.42-.42,4.15-2.14,4.54-1.43.32-2.08-.69-3.38-1.22l-3.73-1.63m0,0-2.33-1c-1.08-.45-2.3.15-3.05-.67s.13-4.29,1.63-4.72c1.06-.31,2.15.38,3.36.89m77.77,4.5-6.49,3c-1.25.58-1.79,1.6-3.27,1.33-1.76-.32-3.3-3-2.53-4.44.2-.37,2.1-.52,3.26-1.08l9-4.31m0,0c1.16-.56,2.17-1.28,3.28-1,1.55.38,2.77,3.65,2,4.63s-1.94.3-3,.78l-2.29,1.07m-60.19-13c-.57-.51-.44-1.08-.89-1.72l-4-6.83-1.58-1.34c-.11-1.73,2.93-3.2,4.49-2.17.67.41.71.94,1.12,1.59l4.07,7.35c.5.79,1.41,1.11,1.4,2C238.79,261.76,235.53,262.39,234.24,261.31Zm36.76.29c0-.88.92-1.19,1.43-2l5.38-8.26c.42-.64.48-1.16,1.15-1.57,1.58-1,4.58.53,4.45,2.26l-1.6,1.3-5.32,7.74c-.45.63-.34,1.2-.92,1.7C274.26,263.87,271,263.18,271,261.6Zm-10.88,16.78a5.47,5.47,0,0,1,5.16-.3c1.18.49,1.7,2.21.83,2.9s-1.7.11-3.13.14c-.94,0-1.76.52-2.47.09S259,279.28,260.12,278.38Zm-17.73.05a5.48,5.48,0,0,1,5.16-.3c1.19.48,1.7,2.2.83,2.9s-1.7.1-3.12.14c-.95,0-1.76.52-2.47.09S241.25,279.33,242.39,278.43ZM229,280a3.37,3.37,0,0,0,6.67,0c0-6.81,8.24-12.37,18.41-12.4s18.45,5.49,18.47,12.3a3.37,3.37,0,0,0,6.68,0c0-10-11.32-18.14-25.17-18.1S229,270,229,280Z" transform="translate(-211.36 -237.61)"/><path class="cls-2" d="M294.82,268.65c1.16-.56,2.17-1.28,3.28-1,1.55.37,2.77,3.64,2,4.63s-1.94.29-3,.77l-2.29,1.07" transform="translate(-211.36 -237.61)"/><path class="cls-1" d="M217.1,275.41l-2.33-1c-1.08-.45-2.3.14-3-.68s.12-4.29,1.62-4.71c1.06-.32,2.58.37,3.79.89" transform="translate(-211.36 -237.61)"/><path class="cls-1" d="M321.58,276.38c2.17,0,3.67,1.81,3.67,4.38s-1.5,4.44-3.67,4.44H311.21c-3,0-4.63-2.26-4.63-6.24V247.12c0-3.28,1.49-5.47,3.71-5.47s3.67,2.19,3.67,5.47v29.26Z" transform="translate(-211.36 -237.61)"/><path class="cls-1" d="M332.67,272c1.06,3.8,2.85,5.6,5.65,5.6a6.81,6.81,0,0,0,3.81-1.29l2-1.35a2.42,2.42,0,0,1,1.5-.45c1.5,0,2.89,1.86,2.89,3.86,0,3.86-5.11,7.46-10.61,7.46-7.57,0-12.88-6.82-12.88-16.47,0-10,5.16-17.43,12.16-17.43,6.61,0,11.77,7.14,11.77,16.34,0,2.64-.92,3.73-3.09,3.73Zm9.31-6.43c-.77-4.05-2.17-5.92-4.58-5.92s-3.95,1.8-5,5.92Z" transform="translate(-211.36 -237.61)"/><path class="cls-1" d="M374.79,280.05c0,3.35-1.45,5.6-3.57,5.6-1.69,0-2.85-1.23-3.57-3.73-1.79,2.95-3.23,3.92-5.84,3.92-6.42,0-11.19-7.33-11.19-17.11,0-9.39,4.87-16.79,11.09-16.79,2.51,0,4,1,6,3.73.78-2.51,1.84-3.53,3.53-3.53,2,0,3.52,2.12,3.52,4.82Zm-17.08-11.19c0,4.89,2,8.17,4.92,8.17s4.87-3.35,4.87-8.3c0-4.7-2-8-4.92-8S357.71,264,357.71,268.86Z" transform="translate(-211.36 -237.61)"/><path class="cls-1" d="M378.89,257.54c0-3.28,1.4-5.4,3.57-5.4,1.59,0,2.75,1.09,3.52,3.34,2-2.64,3.23-3.54,4.87-3.54,2,0,3.62,2.19,3.62,4.89,0,2.25-.72,3.15-3.62,4.31-3.86,1.67-4.87,3-4.87,6.3v12.93c0,3.15-1.45,5.28-3.52,5.28s-3.57-2.13-3.57-5.28V257.54Z" transform="translate(-211.36 -237.61)"/><path class="cls-1" d="M396.2,257.67c0-3.35,1.45-5.53,3.62-5.53,1.59,0,2.6,1,3.28,3.28,2.07-2.58,3.76-3.48,6.51-3.48,5.55,0,8.73,4.31,8.73,11.9v16.53c0,3.15-1.44,5.28-3.52,5.28s-3.57-2.13-3.57-5.28V266.09c0-3.66-1.54-6-3.95-6s-4,2.44-4,5.66v14.66c0,3.15-1.44,5.28-3.52,5.28s-3.57-2.13-3.57-5.28v-22.7Z" transform="translate(-211.36 -237.61)"/><path class="cls-1" d="M430.74,243.58c0,3.09-1.83,5.53-4.15,5.53s-4.1-2.44-4.1-5.53,1.83-5.47,4.1-5.47S430.74,240.56,430.74,243.58ZM423,257.41c0-3.15,1.45-5.27,3.53-5.27s3.57,2.12,3.57,5.27v23c0,3.15-1.45,5.28-3.53,5.28s-3.57-2.13-3.57-5.28v-23Z" transform="translate(-211.36 -237.61)"/><path class="cls-1" d="M434.84,257.67c0-3.35,1.45-5.53,3.62-5.53,1.59,0,2.6,1,3.28,3.28,2.07-2.58,3.76-3.48,6.51-3.48,5.55,0,8.73,4.31,8.73,11.9v16.53c0,3.15-1.44,5.28-3.52,5.28s-3.57-2.13-3.57-5.28V266.09c0-3.66-1.54-6-3.95-6s-4,2.44-4,5.66v14.66c0,3.15-1.44,5.28-3.52,5.28s-3.57-2.13-3.57-5.28v-22.7Z" transform="translate(-211.36 -237.61)"/><path class="cls-1" d="M466.63,288.73a11.55,11.55,0,0,0,4.34,1.16c3.86,0,5.31-2.12,5.65-8.36-1.93,3.28-3.38,4.31-5.94,4.31-6.31,0-10.85-6.95-10.85-16.66s4.73-17.24,10.95-17.24c2.36,0,3.81.9,5.84,3.73,1-2.57,1.93-3.53,3.42-3.53,2,0,3.43,2.12,3.43,5.21V282.3c0,10.23-4.73,16.4-12.59,16.4-6,0-10.66-3.08-10.66-7,0-2.25,1.44-4.11,3.28-4.11a2.53,2.53,0,0,1,1.11.25Zm.29-19.68c0,4.63,2,8,4.78,8s4.77-3.41,4.77-8.11-2-8.17-4.82-8.17S466.92,264,466.92,269.05Z" transform="translate(-211.36 -237.61)"/><path class="cls-1" d="M505.55,277l-.77,3.73C504,284.55,503,286,501,286s-3.71-2.19-3.71-4.76a8.14,8.14,0,0,1,.33-2.38l8.69-31.91c.91-3.47,2.89-5.46,5.45-5.46s4.48,2,5.45,5.46l8.68,31.91a8.33,8.33,0,0,1,.34,2.31c0,2.64-1.69,4.83-3.72,4.83-1.68,0-3-1.55-3.57-4.18l-1-4.76Zm6.23-25.15-3.91,16.34h7.81Z" transform="translate(-211.36 -237.61)"/><path class="cls-1" d="M546.79,263.46c2,0,3.37,1.6,3.37,4s-1.35,4.06-3.37,4.06H532.31c-2,0-3.37-1.61-3.37-4.06s1.35-4,3.37-4h14.48Z" transform="translate(-211.36 -237.61)"/><path class="cls-1" d="M572.32,276.38c2.17,0,3.66,1.81,3.66,4.38s-1.49,4.44-3.66,4.44H555.48a4.55,4.55,0,0,1-4.68-4.89,7.34,7.34,0,0,1,1-3.6l.77-1.29,13.7-24.31H555.09c-2.17,0-3.66-1.81-3.66-4.44s1.49-4.38,3.66-4.38h16c2.7,0,4.29,1.87,4.29,5a8.79,8.79,0,0,1-1,3.8l-14,25.27Z" transform="translate(-211.36 -237.61)"/></svg>