<svg xmlns="http://www.w3.org/2000/svg" viewBox="0 0 955.84 250.95"><defs><style>.cls-1{fill:#134d78;}.cls-1,.cls-2{fill-rule:evenodd;}.cls-2,.cls-4{fill:#1ba1cd;}.cls-3{fill:#2e2e2e;}</style></defs><title>Asset 1</title><g id="Layer_2" data-name="Layer 2"><g id="Layer_1-2" data-name="Layer 1"><g id="LOGO"><polygon class="cls-1" points="40.74 33.32 213.78 33.32 213.78 203.88 247.1 236.73 247.1 0 6.94 0 40.74 33.32"/><polygon class="cls-1" points="205.92 213.78 33.32 213.78 33.32 43.64 0 10.8 0 247.1 239.73 247.1 205.92 213.78"/><path class="cls-2" d="M182.1,56.66H65.34V91.84H182.1Z"/><path class="cls-2" d="M182.1,104.65H65.34v35.19H182.1Z"/><path class="cls-2" d="M182.1,152.65H65.34v35.18H182.1Z"/></g><g id="LEARNING"><path class="cls-3" d="M282.83,115.8V25h20V97.62h45.29V115.8Z"/><path class="cls-3" d="M359.85,115.8V25h68.47v17.8H379.67V61.2H422.5V78.93H379.67V98H429v17.8Z"/><path class="cls-3" d="M435.72,115.8l39-91.47h18.37l39,91.47h-20.9l-8.3-20.4H464.42l-8.3,20.4Zm35.8-38h24.13l-12-29.45Z"/><path class="cls-3" d="M542.71,115.8V25H584.2q17.22,0,26.47,9.25,7.8,7.78,7.8,20.71v.32q0,10.59-5.19,17.68A30.18,30.18,0,0,1,599,83.37l22.17,32.43H597.82L578.37,86.73H562.66V115.8Zm19.95-46.68h20.27c4.82,0,8.57-1.18,11.28-3.52a11.77,11.77,0,0,0,4-9.35V56q0-6.33-4.15-9.66T582.55,43H562.66Z"/><path class="cls-3" d="M633.21,115.8V25h18.44L694.22,80.9V25h19.7V115.8h-17l-44-57.71V115.8Z"/><path class="cls-3" d="M733.29,115.8V25h20V115.8Z"/><path class="cls-3" d="M772.74,115.8V25h18.44L833.75,80.9V25h19.7V115.8h-17l-44-57.71V115.8Z"/><path class="cls-3" d="M915.64,117.39a51.86,51.86,0,0,1-19.35-3.55,43.14,43.14,0,0,1-24.84-24.61,49,49,0,0,1-3.51-18.6v-.25A47.57,47.57,0,0,1,881.4,37.19a45.58,45.58,0,0,1,15.14-10,48.87,48.87,0,0,1,19-3.71q11.79,0,20,3a53.59,53.59,0,0,1,15.71,9.38l-12.55,15.2a45,45,0,0,0-11-7,32.92,32.92,0,0,0-12.7-2.21,24.19,24.19,0,0,0-18.47,8.29,28.46,28.46,0,0,0-7.63,20v.25q0,12.48,7.73,20.65t19.76,8.17q11.16,0,18.82-5.44v-13H915V63.54h39.46v39.4A58.23,58.23,0,0,1,915.64,117.39Z"/></g><g id="EXPERIENCES"><path class="cls-3" d="M282.65,201.74V133.63H334V147H297.52V160.8h32.1v13.29h-32.1v14.3h37v13.35Z"/><path class="cls-4" d="M340.2,201.74,364,167.12,341.2,133.63h17.53l14.19,22.09,14.49-22.09h17l-22.75,33.29,23.75,34.82H387.89l-15.3-23.37-15.34,23.37Z"/><path class="cls-4" d="M414.14,201.74V133.63H442q12,0,19.05,6.48t7,17.08v.19a24.22,24.22,0,0,1-2.14,10.35,20.05,20.05,0,0,1-5.91,7.55,27.1,27.1,0,0,1-8.74,4.49,36,36,0,0,1-10.76,1.55h-11.4v20.42ZM429.09,168H441c3.67,0,6.57-1,8.69-2.9a9.57,9.57,0,0,0,3.18-7.41v-.19a9.33,9.33,0,0,0-3.23-7.62q-3.23-2.68-8.93-2.68H429.09Z"/><path class="cls-3" d="M476.67,201.74V133.63H528V147H491.54V160.8h32.1v13.29h-32.1v14.3h37v13.35Z"/><path class="cls-3" d="M539.4,201.74V133.63h31.11q12.91,0,19.85,6.94,5.83,5.84,5.84,15.53v.23q0,7.93-3.89,13.25a22.59,22.59,0,0,1-10.69,7.84l16.62,24.32H580.72l-14.58-21.8H554.36v21.8Zm15-35h15.2c3.61,0,6.43-.87,8.45-2.63a8.8,8.8,0,0,0,3-7v-.19a8.75,8.75,0,0,0-3.11-7.24q-3.11-2.49-8.66-2.49H554.36Z"/><path class="cls-3" d="M607.92,201.74V133.63h15v68.11Z"/><path class="cls-3" d="M637.5,201.74V133.63h51.34V147H652.37V160.8h32.1v13.29h-32.1v14.3h37v13.35Z"/><path class="cls-3" d="M700.23,201.74V133.63h13.82L746,175.57V133.63h14.77v68.11H748l-33-43.27v43.27Z"/><path class="cls-3" d="M806.5,202.92a35,35,0,0,1-17.85-4.65,33.27,33.27,0,0,1-12.54-12.68,35.52,35.52,0,0,1-4.51-17.72v-.18A35.86,35.86,0,0,1,776.06,150a33.4,33.4,0,0,1,12.64-12.77,35.83,35.83,0,0,1,18.38-4.75,38.84,38.84,0,0,1,15.34,2.71A37.18,37.18,0,0,1,833.91,143l-9.5,11a34.52,34.52,0,0,0-8.36-5.7,21.2,21.2,0,0,0-9.07-1.95,18.34,18.34,0,0,0-14.13,6.15,21.48,21.48,0,0,0-5.63,15v.2a22,22,0,0,0,5.58,15.17A18.19,18.19,0,0,0,807,189.1a21.18,21.18,0,0,0,9.4-1.95,37,37,0,0,0,8.5-6l9.55,9.64a39.46,39.46,0,0,1-12.13,9.12Q815.82,202.93,806.5,202.92Z"/><path class="cls-3" d="M843.92,201.74V133.63h51.34V147H858.78V160.8h32.11v13.29H858.78v14.3h37v13.35Z"/><path class="cls-3" d="M930.87,202.69a44.23,44.23,0,0,1-15.39-2.76A41.18,41.18,0,0,1,902,191.81l8.83-10.59q10.06,8.26,20.33,8.26a13.09,13.09,0,0,0,7.22-1.71,5.34,5.34,0,0,0,2.61-4.7v-.19a5.23,5.23,0,0,0-1-3.32,10.57,10.57,0,0,0-4-2.64,57,57,0,0,0-8.67-2.73q-3.22-.81-5.57-1.54c-1.57-.49-3.19-1.08-4.88-1.76a27.11,27.11,0,0,1-4.22-2.11,22,22,0,0,1-3.3-2.61,13,13,0,0,1-2.54-3.35,18.24,18.24,0,0,1-1.5-4.21,23.51,23.51,0,0,1-.54-5.22v-.19a18.54,18.54,0,0,1,6.67-14.87q6.68-5.64,17.17-5.65a39.05,39.05,0,0,1,25.26,8.65L946,152.63q-9.75-6.75-17.67-6.75a10.94,10.94,0,0,0-6.49,1.67,5.06,5.06,0,0,0-2.3,4.27V152a5.49,5.49,0,0,0,2.85,5q2.85,1.71,11.88,4a65.06,65.06,0,0,1,9.23,3.06,28.28,28.28,0,0,1,6.68,4,14.56,14.56,0,0,1,4.27,5.68,19.78,19.78,0,0,1,1.37,7.67v.19q0,9.93-6.86,15.5T930.87,202.69Z"/></g><path id="swoosh" class="cls-1" d="M319.48,233.09l-1,17.86s60-32.54,171.79-29.15C490.27,221.8,407.63,195.55,319.48,233.09Z"/></g></g></svg>