<?xml version="1.0" encoding="utf-8"?>
<!-- Generator: Adobe Illustrator 21.1.0, SVG Export Plug-In . SVG Version: 6.00 Build 0)  -->
<!DOCTYPE svg PUBLIC "-//W3C//DTD SVG 1.1//EN" "http://www.w3.org/Graphics/SVG/1.1/DTD/svg11.dtd">
<svg version="1.1" id="Layer_1" xmlns="http://www.w3.org/2000/svg" xmlns:xlink="http://www.w3.org/1999/xlink" x="0px" y="0px"
	 viewBox="0 0 160 32.1" style="enable-background:new 0 0 160 32.1;" xml:space="preserve">
<style type="text/css">
	.st0{fill-rule:evenodd;clip-rule:evenodd;fill:#F15822;}
	.st1{fill-rule:evenodd;clip-rule:evenodd;fill:#FEBE19;}
	.st2{fill-rule:evenodd;clip-rule:evenodd;fill:#FFFFFF;}
</style>
<g>
	<path class="st0" d="M138.3,10.3c-1.9-1.4-4.3-2.2-6.9-2.2c-6.5,0-11.7,5.3-11.7,11.8c0,6.5,5.3,11.8,11.7,11.8
		c6.5,0,11.7-5.3,11.7-11.8c0-1-0.1-2-0.4-3c-0.5,0.9-1.4,1.4-2.4,1.4c-0.2,0-0.5,0-0.7-0.1c0.1,0.5,0.2,1.1,0.2,1.6
		c0,4.7-3.8,8.4-8.4,8.4c-4.6,0-8.4-3.8-8.4-8.4c0-4.7,3.8-8.4,8.4-8.4c1.9,0,3.7,0.6,5.1,1.7c0.1,1.4,1.3,2.6,2.8,2.6
		c1.5,0,2.8-1.3,2.8-2.8c0-1.5-1.3-2.8-2.8-2.8C138.9,10.1,138.6,10.2,138.3,10.3z"/>
	<path class="st0" d="M108.9,8.4c-3.7,0-6.8,2.4-8,5.1h-0.1c-0.8-3.4-3-5.1-6.8-5.1c-2.9,0-5.6,1.8-7.1,3.9
		c-0.3,0.4-0.5,0.9-0.7,1.3h-0.1c0,0,0.1-0.8,0.1-1.7v-0.4V8.9H82v22.6h4.3V21.2c0-1,0-2.1,0.3-3c0.8-3.2,3.2-5.9,6.5-5.9
		c3.5,0,3.9,2.7,3.9,5.7v13.6h4.3V21.2c0-1.2,0.1-2.2,0.3-3.1c0.8-3.1,3.2-5.8,6.3-5.8c3.4,0,4,2.5,4,5.7v13.6h4.3V17.1
		C116.3,11.3,114,8.4,108.9,8.4z"/>
	<path class="st0" d="M77.7,8.7c-3,0-5.3,1.9-6.6,4.5c-0.2,0.4-0.4,0.9-0.5,1.4h-0.1c0,0,0.1-0.8,0.1-1.7v-0.6V8.9h-4.2v22.6h4.3
		v-9.3c0-1.4,0.1-2.8,0.5-4.1c1-3.4,3.6-5.3,6.3-5.3c0.7,0,1.3,0.1,1.3,0.1V8.8C78.8,8.8,78.3,8.7,77.7,8.7z"/>
	<path class="st0" d="M62.2,19c0-5.9-3.4-10.6-9.8-10.6c-6.4,0-11.3,4.7-11.3,11.9c0,6.7,4.9,11.9,12,11.9c5.4,0,8.8-3.2,8.8-3.2
		l-1.8-3.2c0,0-2.8,2.6-6.7,2.6c-4,0-7.5-2.5-7.8-7.5h16.5C62.1,20.9,62.2,19.6,62.2,19z M45.7,17.6c0.6-3.7,3.3-5.8,6.6-5.8
		c2.9,0,5.3,1.9,5.4,5.8H45.7z"/>
	<path class="st0" d="M29.6,8.4c-3.6,0-6.2,1.9-7.6,3.7l0,0c-0.3,0.4-0.6,0.9-0.8,1.3h-0.1c0,0,0.1-0.8,0.1-1.9v-0.4l0,0V0h-4.3
		v31.6h4.3V21c0-1.1,0.1-2.1,0.4-3c0.9-3.3,3.8-5.6,7.1-5.6c3.6,0,4.3,2.5,4.3,5.7v13.5h4.3V17.1C37.3,11.3,34.9,8.4,29.6,8.4z"/>
	<path class="st0" d="M2.9,23.3c0,7.6,5.8,8.5,8.7,8.5c0.9,0,1.5-0.1,1.5-0.1v-3.8c0,0-0.4,0.1-1,0.1c-1.7,0-4.8-0.6-4.8-5.1V12.7
		h5.4V9.3H7.3V2.7H3.1v6.5H0v3.5h2.9V23.3z"/>
	<ellipse class="st1" cx="131.4" cy="19.8" rx="4.5" ry="4.5"/>
</g>
<g>
	<path class="st2" d="M153.5,12c0,1.4,1,2.4,2.3,2.4c1.2,0,2.3-1,2.3-2.4c0-1.4-1-2.4-2.3-2.4C154.5,9.6,153.5,10.6,153.5,12z
		 M151.6,12c0-2.3,1.9-4,4.2-4c2.3,0,4.2,1.7,4.2,4c0,2.4-1.9,4-4.2,4C153.4,16,151.6,14.4,151.6,12z M148.3,15.9h1.9V8.2h-1.9V15.9
		z M148.3,6.9h1.9V5.2h-1.9V6.9z"/>
</g>
</svg>
