<svg id="Layer_1" data-name="Layer 1" xmlns="http://www.w3.org/2000/svg" viewBox="0 0 901.8 250"><defs><style>.cls-1{fill:#f8560f;}.cls-1,.cls-2,.cls-3{fill-rule:evenodd;}.cls-2{fill:#ffbe14;}.cls-3,.cls-4{fill:#222;}</style></defs><title>logo_thermo</title><path class="cls-1" d="M484.87,66.84l3.83,3.63c7.68-11.23,22-20.59,37.58-20.59,20.23,0,32.13,9.3,36.18,27.41h.47c6.67-14.54,23.33-27.41,42.85-27.41,27.13,0,39.74,15.49,39.74,46.24v77.23H622.44V101.13c0-16.93-3.34-30.27-21.42-30.27-16.9,0-29.52,14.3-33.8,30.75a71.93,71.93,0,0,0-1.67,16.68v55.06H542.46V101.13c0-15.73-2.38-30.27-20.94-30.27-17.61,0-30,14.54-34.51,31.7a66.74,66.74,0,0,0-1.43,15.73v55.06H462.49V52.74h22.38Zm277.71-7a62.71,62.71,0,1,0,25.88,50.78,62.89,62.89,0,0,0-2-15.93,14.91,14.91,0,0,1-16.6,7.18,44.8,44.8,0,1,1-44-36.12,44.53,44.53,0,0,1,27.26,9.26,14.9,14.9,0,1,0,9.45-15.17ZM488.7,70.47l-3.83-3.63v1.87a84,84,0,0,1-.48,8.82h.48A37.8,37.8,0,0,1,488.7,70.47Zm-87.1.11,2.89,4.82c6.73-14,19.3-24.09,35.19-24.09a40.71,40.71,0,0,1,5.95.48V74.67A32.93,32.93,0,0,0,439,74c-14.76,0-28.33,10.49-33.8,28.37A73.45,73.45,0,0,0,402.31,124v49.34H379.22V52.74H401.6Zm2.89,4.82-2.89-4.82v3.14a85.8,85.8,0,0,1-.48,9h.48A54.72,54.72,0,0,1,404.49,75.4ZM269.3,99h64.26c-.71-20.73-13.56-30.75-29-30.75C286.91,68.23,272.63,79.2,269.3,99Zm-24.52,14.07c0-38.38,26-63.17,60.22-63.17,34,0,52.13,25.27,52.13,56.49,0,3.1-.72,10-.72,10H268.59c1.19,26.46,20,39.81,41.41,39.81,20.71,0,35.7-14.06,35.7-14.06l9.52,16.92s-17.85,17.16-46.65,17.16C270.73,176.21,244.78,148.8,244.78,113.05ZM138.67,64.54l4.16,5.21a49.45,49.45,0,0,1,40.35-19.87c28.32,0,41.41,15.49,41.41,46.24v77.23H201.5v-72c0-16.93-3.57-30.28-22.85-30.28-18.09,0-33.08,12.4-38.08,29.8a56.48,56.48,0,0,0-1.9,16v56.49H115.58V5.07h23.09Zm4.16,5.21-4.16-5.21V66.8a100.27,100.27,0,0,1-.48,10h.48A39.25,39.25,0,0,1,142.83,69.75ZM41.36,129.26c0,40.28,30.7,45.05,46.17,45.05a62.72,62.72,0,0,0,8.09-.48v-20.5a27.52,27.52,0,0,1-5.47.48c-8.81,0-25.71-3.1-25.71-27.18V73h29V54.41h-29V19.61H42.07v34.8H25.65V73H41.36Z"/><path class="cls-2" d="M725.87,134.55A23.89,23.89,0,1,0,702,110.67,23.86,23.86,0,0,0,725.87,134.55Z"/><path class="cls-3" d="M843.68,69.09c0,7.62,5.52,12.75,12.17,12.75s12.09-5.13,12.09-12.75-5.52-12.75-12.09-12.75S843.68,61.55,843.68,69.09Zm-10.33,0c0-12.51,10-21.41,22.42-21.41s22.5,8.9,22.5,21.41-10,21.41-22.42,21.41S833.35,81.68,833.35,69.09ZM815.68,89.54h10.17V48.64H815.68Zm0-47.88h10.09V32.6H815.68Z"/><path class="cls-4" d="M41.94,195.18H67.58v5.67H48.46v15.29H64.75v5.67H48.46v19.9H41.94Z"/><path class="cls-4" d="M87.86,207.57c10,0,18,7.32,18,17.4s-8,17.54-18,17.54-18-7.39-18-17.54S77.91,207.57,87.86,207.57Zm0,29.4c6.33,0,11.47-5,11.47-12a11.48,11.48,0,1,0-22.94,0C76.39,232,81.6,237,87.86,237Z"/><path class="cls-4" d="M126.26,207.57c8.37,0,12.52,4.88,12.52,4.88l-3,4.48a13.52,13.52,0,0,0-9.23-3.82c-6.72,0-11.59,5-11.59,11.86s4.87,12,11.8,12A15.08,15.08,0,0,0,137,232.49l2.58,4.68a18.29,18.29,0,0,1-13.32,5.34c-10.48,0-17.86-7.45-17.86-17.47S115.78,207.57,126.26,207.57Z"/><path class="cls-4" d="M143.71,208.37h6.39v19.9c0,4.61.93,8.3,6.27,8.3,6.78,0,10.8-6,10.8-12.58V208.37h6.4v33.34h-6.2V237.3a22.28,22.28,0,0,1,.13-2.44h-.13a13.44,13.44,0,0,1-12.26,7.65c-7.51,0-11.4-4-11.4-12.79Z"/><path class="cls-4" d="M181.32,233.08a14.32,14.32,0,0,0,9.56,3.89c2.77,0,5.53-1.45,5.53-4.15,0-6.13-17.13-4.88-17.13-15.75,0-6.07,5.4-9.5,12.06-9.5,7.31,0,10.74,3.69,10.74,3.69l-2.57,4.82a12.18,12.18,0,0,0-8.24-3c-2.77,0-5.47,1.19-5.47,4.09,0,6,17.14,4.68,17.14,15.62,0,5.53-4.75,9.69-12.06,9.69a18,18,0,0,1-12.66-4.88Z"/><path class="cls-4" d="M222.17,207.57c9.43,0,14.43,7,14.43,15.62,0,.86-.19,2.77-.19,2.77H212.09c.32,7.32,5.53,11,11.46,11a15.89,15.89,0,0,0,9.89-3.89l2.64,4.68a19.87,19.87,0,0,1-12.92,4.75c-10.48,0-17.66-7.58-17.66-17.47C205.5,214.43,212.68,207.57,222.17,207.57Zm7.91,13.58c-.2-5.73-3.76-8.5-8-8.5-4.88,0-8.83,3-9.75,8.5Z"/><path class="cls-4" d="M254.64,207.57c7.71,0,10.28,5.28,10.28,5.28h.14a17.81,17.81,0,0,1-.14-2.24V195.18h6.4v46.53h-6.07v-3.16c0-1.32.07-2.24.07-2.24h-.13s-2.71,6.2-10.95,6.2c-9,0-14.69-7.12-14.69-17.47C239.55,214.43,245.81,207.57,254.64,207.57Zm.86,29.4c4.94,0,9.62-3.49,9.62-12,0-5.93-3.1-11.86-9.42-11.86-5.27,0-9.63,4.35-9.63,11.93C246.07,232.29,250,237,255.5,237Z"/><path class="cls-4" d="M278.68,234.93h6.72v6.78h-6.72Z"/><path class="cls-4" d="M308.39,195.18H334v5.67H314.91v15.29h16.28v5.67H314.91v19.9h-6.52Z"/><path class="cls-4" d="M355.5,220.89H357v-.59c0-5.47-3.1-7.32-7.32-7.32a16.9,16.9,0,0,0-9.29,3.23l-2.64-4.68a20.9,20.9,0,0,1,12.46-4c8.43,0,13.18,4.62,13.18,13.05v21.09h-5.93v-3.16a25.3,25.3,0,0,1,.13-2.63h-.13a11.55,11.55,0,0,1-10.68,6.59c-5.74,0-11.34-3.5-11.34-10.16C335.39,221.35,349.89,220.89,355.5,220.89Zm-7.39,16.47c5.41,0,8.9-5.66,8.9-10.61V225.7h-1.65c-4.81,0-13.51.33-13.51,6.33C341.85,234.73,344,237.36,348.11,237.36Z"/><path class="cls-4" d="M370.64,233.08A14.29,14.29,0,0,0,380.2,237c2.76,0,5.53-1.45,5.53-4.15,0-6.13-17.14-4.88-17.14-15.75,0-6.07,5.41-9.5,12.07-9.5,7.31,0,10.74,3.69,10.74,3.69l-2.57,4.82a12.21,12.21,0,0,0-8.24-3c-2.77,0-5.47,1.19-5.47,4.09,0,6,17.13,4.68,17.13,15.62,0,5.53-4.74,9.69-12.05,9.69a17.93,17.93,0,0,1-12.66-4.88Z"/><path class="cls-4" d="M398.5,214h-4.35v-5.14h4.54v-9.62h6.2v9.62h8V214h-8V228.8c0,6.65,4.68,7.51,7.12,7.51a7.91,7.91,0,0,0,1.52-.13v5.67a17.91,17.91,0,0,1-2.24.13c-4.29,0-12.79-1.32-12.79-12.46Z"/><path class="cls-4" d="M432.43,207.57c9.42,0,14.43,7,14.43,15.62,0,.86-.19,2.77-.19,2.77H422.35c.32,7.32,5.53,11,11.46,11a15.93,15.93,0,0,0,9.89-3.89l2.63,4.68a19.82,19.82,0,0,1-12.91,4.75c-10.48,0-17.67-7.58-17.67-17.47C415.75,214.43,422.94,207.57,432.43,207.57Zm7.91,13.58c-.2-5.73-3.76-8.5-8-8.5-4.87,0-8.83,3-9.75,8.5Z"/><path class="cls-4" d="M452,208.37h6.2v5.8a22.49,22.49,0,0,1-.14,2.5h.14c1.51-4.88,5.4-8.7,10.54-8.7a11.5,11.5,0,0,1,1.65.13v6.33a9.17,9.17,0,0,0-1.85-.2c-4.08,0-7.84,2.9-9.35,7.84a20.12,20.12,0,0,0-.8,6v13.64H452Z"/><path class="cls-4" d="M471.75,234.93h6.72v6.78h-6.72Z"/></svg>